<svg width="40" height="40" fill="none" xmlns="http://www.w3.org/2000/svg"><g clip-path="url(#clip0_718_478)" fill="#fff"><path d="M26.25 0a13.3 13.3 0 00-3.31.415 1.248 1.248 0 10.62 2.42 10.834 10.834 0 012.69-.335c6.203 0 11.25 5.192 11.25 11.575 0 7.32-8.45 17.253-11.255 20.345-.379-.419-.75-.844-1.115-1.275a1.251 1.251 0 00-1.91 1.615c1.268 1.5 2.145 2.378 2.145 2.378.236.231.554.361.885.362h.008a1.245 1.245 0 00.884-.377C27.67 36.585 40 23.823 40 14.075 40 6.313 33.833 0 26.25 0z"/><path d="M13.75 2.5C6.168 2.5 0 8.818 0 16.582c0 9.73 12.33 22.5 12.855 23.038a1.246 1.246 0 001.79.003c.525-.54 12.855-13.31 12.855-23.04C27.5 8.817 21.332 2.5 13.75 2.5zm0 34.415C10.94 33.813 2.5 23.885 2.5 16.583 2.5 10.197 7.548 5 13.75 5 19.953 5 25 10.197 25 16.582c0 7.303-8.44 17.23-11.25 20.333z"/><path d="M13.75 10a6.259 6.259 0 00-6.25 6.25 6.259 6.259 0 006.25 6.25A6.259 6.259 0 0020 16.25 6.259 6.259 0 0013.75 10zm0 10A3.755 3.755 0 0110 16.25a3.755 3.755 0 013.75-3.75 3.755 3.755 0 013.75 3.75A3.755 3.755 0 0113.75 20z"/></g><defs><clipPath id="clip0_718_478"><path fill="#fff" d="M0 0h40v40H0z"/></clipPath></defs></svg>