<svg width="40" height="40" fill="none" xmlns="http://www.w3.org/2000/svg"><g clip-path="url(#clip0_718_475)"><path d="M33.333 28.333A3.343 3.343 0 0130 25c0-1.833 1.5-3.333 3.333-3.333 1.834 0 3.334 1.5 3.334 3.333 0 1.833-1.5 3.333-3.334 3.333zm0-5c-1 0-1.666.667-1.666 1.667s.666 1.667 1.666 1.667C34.333 26.667 35 26 35 25s-.667-1.667-1.667-1.667zm5.834 13.334c-.5 0-.834-.334-.834-.834v-1.666c0-1.334-1.166-2.5-2.5-2.5h-5c-.5 0-.833-.334-.833-.834 0-.5.333-.833.833-.833h5A4.126 4.126 0 0140 34.167v1.666c0 .5-.333.834-.833.834zm-32.5-8.334A3.343 3.343 0 013.333 25c0-1.833 1.5-3.333 3.334-3.333C8.5 21.667 10 23.167 10 25c0 1.833-1.5 3.333-3.333 3.333zm0-5C5.667 23.333 5 24 5 25s.667 1.667 1.667 1.667S8.333 26 8.333 25s-.666-1.667-1.666-1.667zM.833 36.667c-.5 0-.833-.334-.833-.834v-1.666A4.126 4.126 0 014.167 30h5c.5 0 .833.333.833.833 0 .5-.333.834-.833.834h-5c-1.334 0-2.5 1.166-2.5 2.5v1.666c0 .5-.334.834-.834.834zM20 29.167c-2.833 0-5-2.167-5-5 0-2.834 2.167-5 5-5s5 2.166 5 5c0 2.833-2.167 5-5 5zm0-8.334a3.343 3.343 0 00-3.333 3.334c0 1.833 1.5 3.333 3.333 3.333 1.833 0 3.333-1.5 3.333-3.333 0-1.834-1.5-3.334-3.333-3.334zM28.333 40c-.5 0-.833-.333-.833-.833v-3.334c0-1.333-1.167-2.5-2.5-2.5H15c-1.333 0-2.5 1.167-2.5 2.5v3.334c0 .5-.333.833-.833.833-.5 0-.834-.333-.834-.833v-3.334A4.126 4.126 0 0115 31.667h10a4.126 4.126 0 014.167 4.166v3.334c0 .5-.334.833-.834.833zm-13-23.333c-.166 0-.333 0-.333-.167a.917.917 0 01-.5-.833l.833-5-3.5-3.5c-.166-.167-.166-.5-.166-.834.166-.333.333-.5.666-.5L17.167 5 19.333.5c0-.333.334-.5.667-.5s.667.167.833.5l2 4.5 4.667.667c.333 0 .5.333.667.5.166.166 0 .666-.167.833l-3.5 3.5.833 5c0 .333 0 .667-.333.833-.333.167-.667.167-.833 0L20 14.167 15.833 16.5c-.166.167-.333.167-.5.167zm-1.166-9.5l2.666 2.666c.167.167.334.5.167.667l-.5 3.833 3.167-1.666c.166-.167.5-.167.833 0l3.167 1.666L23 10.667c0-.334 0-.5.167-.667l2.666-2.667-3.5-.5c-.333 0-.5-.166-.666-.5L20.167 3l-1.5 3.333c-.334 0-.667.167-.834.334l-3.666.5zM29.833 15c-.166 0-.333 0-.5-.167C29 14.667 29 14.333 29 14l.667-4.167c0-.5.5-.833 1-.666.5 0 .833.5.666 1l-.333 2.5 2.167-1.167c.333-.167.5-.167.833 0l2.167 1.167L35.5 10c0-.333 0-.5.167-.667L37.5 7.5 35 7.167c-.333 0-.5-.167-.667-.5l-1-2.167-1 2.167c-.166.5-.666.666-1.166.333-.5-.167-.667-.667-.334-1.167L32.667 2c0-.167.333-.333.666-.333.334 0 .667.166.834.5l1.666 3.5 3.667.5c.333 0 .5.333.667.5.166.333 0 .666-.167.833l-2.667 2.667L38 14c0 .333 0 .667-.333.833-.334.167-.667.167-.834 0l-3.5-1.666L30.167 15h-.334zm-19.666 0s-.167 0-.334-.167l-3.166-1.666L3.5 14.833a1.062 1.062 0 01-1 0A1.273 1.273 0 012.167 14l.666-3.833L.167 7.5C0 7.333 0 7 0 6.667c.167-.334.333-.5.667-.5l3.666-.5L6 2.167c0-.334.333-.5.667-.5.333 0 .666.166.833.5L9.333 6c.167.333 0 .833-.333 1.167-.667.166-1.167 0-1.333-.5l-1-2.167-1 2.167c-.167.333-.334.5-.667.5L2.5 7.5l1.833 1.833c.167.167.334.5.167.667l-.333 2.667L6.333 11.5c.334-.167.5-.167.834 0l2.166 1.167L8.667 10c0-.5.166-.833.666-1 .5 0 .834.167 1 .667L11 13.833c0 .334-.167.667-.333.834-.167.333-.334.333-.5.333z" fill="#fff"/></g><defs><clipPath id="clip0_718_475"><path fill="#fff" d="M0 0h40v40H0z"/></clipPath></defs></svg>