<svg width="40" height="40" fill="none" xmlns="http://www.w3.org/2000/svg"><path d="M35.655 17.73c-2.753-7.425-7.761-12.487-7.973-12.7l-2-2v7.517c0 .646-.526 1.172-1.172 1.172a1.173 1.173 0 01-1.172-1.172C23.338 4.73 18.606 0 12.79 0h-1.172v1.172c0 5.473-3.591 9.415-6.32 14.484-2.754 5.112-2.622 11.376.343 16.346A16.409 16.409 0 0019.73 40h.544a16.41 16.41 0 0013.466-7.041c3.066-4.409 3.78-10.198 1.915-15.23zm-3.839 13.89a14.068 14.068 0 01-11.542 6.036h-.544a14.126 14.126 0 01-12.075-6.855c-2.545-4.266-2.658-9.643-.293-14.034 2.582-4.795 6.089-8.75 6.55-14.347 3.995.548 7.082 3.984 7.082 8.127a3.52 3.52 0 003.515 3.515 3.52 3.52 0 003.516-3.515V9.015c1.636 2.088 3.92 5.448 5.433 9.53 1.598 4.311.97 9.321-1.642 13.075z" fill="#fff"/><path d="M18.65 20a3.52 3.52 0 00-3.515-3.516A3.52 3.52 0 0011.619 20a3.52 3.52 0 003.516 3.516A3.52 3.52 0 0018.65 20zm-4.687 0c0-.646.525-1.172 1.172-1.172a1.173 1.173 0 010 2.344A1.173 1.173 0 0113.963 20zm10.547 5.86a3.52 3.52 0 00-3.516 3.515 3.52 3.52 0 003.516 3.516 3.52 3.52 0 003.515-3.516 3.52 3.52 0 00-3.515-3.516zm0 4.687a1.173 1.173 0 01-1.172-1.172c0-.646.525-1.172 1.172-1.172a1.173 1.173 0 010 2.344zm-11.455.42l11.716-14.059 1.8 1.5-11.716 14.059-1.8-1.5z" fill="#fff"/></svg>