<svg width="40" height="40" fill="none" xmlns="http://www.w3.org/2000/svg"><g clip-path="url(#clip0_718_487)" fill="#fff"><path d="M39.99 35.4l-.93-13.17a2.744 2.744 0 00-2.727-2.543H25.479l-.42-7.573a2.735 2.735 0 00-2.73-2.583h-2.273V6.875A6.883 6.883 0 0013.181 0a6.883 6.883 0 00-6.875 6.875v2.656H4.034a2.735 2.735 0 00-2.73 2.583L.007 35.464a4.314 4.314 0 001.169 3.192A4.314 4.314 0 004.297 40h31.406a4.311 4.311 0 003.143-1.367A4.311 4.311 0 0039.99 35.4zm-2.858 1.635c-.374.4-.881.621-1.429.621H21.081c-.548 0-1.055-.22-1.429-.621a1.933 1.933 0 01-.52-1.47l.93-13.17a.392.392 0 01.39-.364h15.881a.391.391 0 01.39.363l.928 13.172a1.934 1.934 0 01-.52 1.469zM8.65 6.875a4.536 4.536 0 014.531-4.531 4.536 4.536 0 014.531 4.531v2.656H8.65V6.875zm-5.772 30.17a1.935 1.935 0 01-.531-1.45l1.297-23.351a.39.39 0 01.39-.369h2.272v1.172a1.172 1.172 0 002.344 0v-1.172h9.062v1.172a1.172 1.172 0 002.344 0v-1.172h2.272a.39.39 0 01.39.369l.414 7.444h-2.68a2.743 2.743 0 00-2.728 2.542l-.93 13.17a4.31 4.31 0 00.462 2.256H4.297a1.935 1.935 0 01-1.419-.61z"/><path d="M31.78 24.375c-.648 0-1.172.525-1.172 1.172v1.417a2.18 2.18 0 01-2.177 2.177 2.18 2.18 0 01-2.176-2.177v-1.417a1.172 1.172 0 00-2.344 0v1.417a4.525 4.525 0 004.52 4.52 4.525 4.525 0 004.52-4.52v-1.417c0-.647-.524-1.172-1.172-1.172z"/></g><defs><clipPath id="clip0_718_487"><path fill="#fff" d="M0 0h40v40H0z"/></clipPath></defs></svg>