<svg width="40" height="40" fill="none" xmlns="http://www.w3.org/2000/svg"><g clip-path="url(#clip0_718_463)" fill="#fff"><path d="M39 22h-9v-7a1.001 1.001 0 00-1-1h-2V7a1 1 0 00-1.447-.895l-4 2A1.002 1.002 0 0021 9v5h-3V7a1 1 0 00-1.447-.895l-4 2A1.002 1.002 0 0012 9v5H9V7a1 1 0 00-1.447-.895l-4 2A1.002 1.002 0 003 9v5H1a1 1 0 00-1 1v24a1 1 0 001 1h38a.999.999 0 001-1V23a.999.999 0 00-1-1zM23 9.618l2-1V14h-2V9.618zm-9 0l2-1V14h-2V9.618zm-9 0l2-1V14H5V9.618zM2 16h26v22h-6V27a.999.999 0 00-1-1H9a.997.997 0 00-1 1v11H2V16zm8 22V28h10v10H10zm28 0h-8V24h8v14z"/><path d="M33 28h2a1 1 0 000-2h-2a1 1 0 000 2zm0 4h2a1 1 0 100-2h-2a1 1 0 000 2zM14 5a.999.999 0 001-1c0-.22 0-.28.816-.552C16.58 3.194 18 2.721 18 1a1 1 0 00-2 0c0 .22 0 .28-.816.552C14.42 1.806 13 2.279 13 4a1 1 0 001 1zm9 0a.999.999 0 001-1c0-.22 0-.28.816-.552C25.58 3.194 27 2.721 27 1a1 1 0 00-2 0c0 .22 0 .28-.817.552C23.42 1.806 22 2.279 22 4a1 1 0 001 1zM5 5a1 1 0 001-1c0-.22 0-.28.816-.552C7.58 3.194 9 2.721 9 1a1 1 0 00-2 0c0 .22 0 .28-.817.552C5.42 1.806 4 2.279 4 4a.998.998 0 001 1z"/></g><defs><clipPath id="clip0_718_463"><path fill="#fff" d="M0 0h40v40H0z"/></clipPath></defs></svg>