<svg width="20" height="20" fill="none" xmlns="http://www.w3.org/2000/svg"><path d="M2.708 2.812c-.666.813.396 5.355 1.813 7.792 1.02 1.73 3.146 3.854 4.875 4.875 2.437 1.417 6.979 2.48 7.791 1.813.417-.334.459-3.792.063-4.125-.146-.104-.73-.25-1.313-.313a43.597 43.597 0 01-1.937-.27c-.875-.146-.938-.105-1.938.874l-1.02 1-.792-.396c-1-.541-3.77-3.312-4.312-4.312l-.396-.792 1-1.02c.979-1 1.02-1.063.875-1.938-.084-.5-.209-1.375-.271-1.938-.063-.583-.208-1.166-.313-1.312-.333-.396-3.791-.354-4.125.062z" fill="#00A110"/></svg>