<svg width="40" height="46" fill="none" xmlns="http://www.w3.org/2000/svg"><path d="M15.244 1.808c-2.577 1.563-4.133 4.413-4.133 7.447v2.344l-3.644.138-3.645.138-1.644 14.94a1529.497 1529.497 0 01-1.911 16.87L0 45.66h40l-.267-1.976a1527.22 1527.22 0 01-1.91-16.87l-1.645-14.94-3.645-.138-3.644-.138V9.255c0-3.08-1.556-5.93-4.178-7.493-2.711-1.609-6.8-1.609-9.467.046zm8.312 2.16c1.822 1.242 2.933 3.127 3.333 5.7l.311 1.977H12.8l.311-1.976C13.778 5.486 16.4 2.91 20 2.91c1.422 0 2.578.322 3.556 1.058zM11.11 14.313c0 .46-.222 1.057-.489 1.333-.266.275-.4 1.057-.31 1.792.132 1.195.31 1.333 1.688 1.333s1.556-.137 1.689-1.333c.089-.735-.045-1.517-.311-1.793-.267-.275-.49-.873-.49-1.332 0-.782.579-.828 7.112-.828s7.111.046 7.111.828c0 .46-.222 1.057-.489 1.333-.266.275-.4 1.057-.31 1.792.132 1.195.31 1.333 1.688 1.333s1.556-.137 1.689-1.333c.089-.735-.045-1.517-.311-1.793-.267-.275-.49-.873-.49-1.332 0-.69.4-.828 2.668-.828 2.088 0 2.666.138 2.666.69 0 .413.711 7.033 1.556 14.755.844 7.677 1.555 14.204 1.555 14.434 0 .276-6.355.46-17.333.46-10.978 0-17.333-.184-17.333-.46 0-.23.71-6.757 1.555-14.434.845-7.722 1.556-14.342 1.556-14.755 0-.552.578-.69 2.666-.69 2.267 0 2.667.138 2.667.828z" fill="#000"/></svg>