<svg width="15" height="15" fill="none" xmlns="http://www.w3.org/2000/svg"><path d="M5.71.963c-1.5.515-2.262.985-3.202 2.06C1.276 4.432.806 5.887.94 7.924c.135 1.993.672 3.09 2.194 4.478 2.597 2.306 6.202 2.284 8.799-.09 1.724-1.567 2.261-2.888 2.127-5.26-.112-2.038-.627-3.202-2.015-4.523C10.5 1.052 7.612.336 5.709.963zm4.566 1.164c3.694 1.858 4.299 7.097 1.12 9.806-.986.873-2.665 1.5-3.896 1.5-1.209 0-2.888-.627-3.85-1.455-2.442-2.082-2.8-5.754-.83-8.329.604-.806 2.216-1.813 3.291-2.104 1.12-.291 3-.023 4.164.582z" fill="#000"/><path d="M4.746 4.746c-.224.224-.022.538.896 1.455l1.164 1.187-1.164 1.187c-1.052 1.074-1.142 1.231-.828 1.5.313.268.514.134 1.522-.851L7.5 8.06l1.164 1.164c1.008 1.007 1.21 1.12 1.523.85.313-.268.224-.425-.829-1.5L8.194 7.389l1.164-1.186c1.053-1.075 1.142-1.232.829-1.5-.314-.27-.515-.135-1.523.85L7.478 6.716 6.38 5.597c-1.21-1.231-1.232-1.254-1.635-.85z" fill="#000"/></svg>