<svg width="15" height="15" fill="none" xmlns="http://www.w3.org/2000/svg"><path d="M2.205.24c-.06.06-.105.84-.105 1.74V3.6h1.65c1.545 0 1.65-.015 1.65-.3 0-.255-.12-.285-1.08-.33l-1.095-.045.735-.48C5.295 1.56 6.195 1.32 7.8 1.38c1.62.075 2.595.435 3.72 1.41 2.865 2.445 2.865 6.975 0 9.42-1.11.96-2.115 1.335-3.675 1.41-1.17.06-1.545.015-2.355-.285-1.8-.63-3.255-2.07-3.84-3.795-.405-1.2-.405-2.895 0-4.08.285-.825.3-.9.045-1.065-.135-.105-.3-.195-.36-.195-.045 0-.255.465-.435 1.05-.285.87-.33 1.29-.27 2.595.045 1.44.09 1.65.6 2.685.705 1.41 1.95 2.64 3.375 3.315.975.465 1.095.48 2.91.48 1.86 0 1.89 0 3-.555 1.425-.705 2.655-1.95 3.33-3.375.465-.975.48-1.095.48-2.91 0-1.86 0-1.89-.555-3-.705-1.425-1.95-2.655-3.375-3.33C9.42.69 9.3.675 7.5.675c-1.74 0-1.935.03-2.775.42-.495.225-1.155.615-1.455.87l-.555.435-.045-1.08C2.625.345 2.475-.015 2.205.24z" fill="#00A110"/><path d="M7.2 4.785c0 1.245-.06 2.13-.15 2.19-.075.045-.15.21-.15.345 0 .15-.465.735-1.05 1.305-.99.975-1.035 1.05-.795 1.305.24.27.3.24 1.305-.765.585-.57 1.2-1.065 1.365-1.095.345-.06.51-.795.24-1.065C7.86 6.9 7.8 6.045 7.8 4.77c0-1.965-.015-2.07-.3-2.07s-.3.105-.3 2.085z" fill="#00A110"/></svg>