<svg width="35" height="35" fill="none" xmlns="http://www.w3.org/2000/svg"><path d="M13.02 1.435c-2.485.98-5.04 3.535-5.985 6.09-.525 1.4-.735 2.765-.735 4.83 0 5.145 2.87 11.795 8.05 18.725 1.435 1.855 2.59 3.08 3.045 3.15 1.855.28 9.345-11.97 10.78-17.605C30.45 7.665 25.69.665 17.395.735c-1.645 0-3.15.245-4.375.7zm8.505 1.855c2.135.98 4.06 3.045 4.9 5.215.735 1.96.595 6.09-.315 8.82-1.4 4.095-7.21 14-8.47 14.42-.91.315-6.475-8.47-8.225-12.95-1.435-3.71-1.785-7.84-.84-10.255 1.4-3.71 4.9-6.09 8.925-6.09 1.645 0 2.765.245 4.025.84z" fill="#00A110"/><path d="M15.19 8.05c-.385.14-1.155.77-1.645 1.4-1.26 1.47-1.365 4.655-.21 6.09 2.17 2.73 6.65 2.625 8.365-.245 1.435-2.31.525-5.985-1.75-7.14-.98-.49-3.64-.56-4.76-.105zm4.585 2.275c.665.63.875 1.225.875 2.275 0 1.05-.21 1.645-.875 2.275-.63.665-1.225.875-2.275.875-1.05 0-1.645-.21-2.275-.875-.665-.63-.875-1.225-.875-2.275 0-1.96 1.19-3.15 3.15-3.15 1.05 0 1.645.21 2.275.875z" fill="#00A110"/></svg>