<svg width="35" height="35" fill="none" xmlns="http://www.w3.org/2000/svg"><path d="M4.74 4.922c-1.167 1.422.692 9.37 3.172 13.635 1.786 3.026 5.505 6.745 8.53 8.532 4.267 2.479 12.214 4.338 13.636 3.171.73-.583.802-6.635.11-7.218-.255-.183-1.276-.438-2.297-.547a76.137 76.137 0 01-3.39-.474c-1.532-.255-1.642-.183-3.392 1.531l-1.786 1.75-1.385-.693c-1.75-.948-6.6-5.797-7.547-7.547l-.693-1.385 1.75-1.786c1.714-1.75 1.787-1.86 1.531-3.391a76.295 76.295 0 01-.474-3.39c-.109-1.021-.364-2.042-.546-2.298-.584-.692-6.636-.62-7.22.11z" fill="#00A110"/></svg>