<svg width="15" height="15" fill="none" xmlns="http://www.w3.org/2000/svg"><path d="M6.57.84c-.45.24-.87.915-.87 1.41 0 .795.855 1.65 1.65 1.65C8.145 3.9 9 3.045 9 2.25c0-.51-.42-1.17-.9-1.425C7.56.54 7.095.54 6.57.84zm1.485.69c.435.405.435.975.015 1.425-.405.435-.975.435-1.425.015-.435-.405-.435-.975-.015-1.425.405-.435.975-.435 1.425-.015zM4.26 4.995c-.045.12-.06.645-.03 1.17l.045.96.87.045.855.045v4.77l-.855.045-.87.045v2.25h6.45v-2.25l-.855-.045-.87-.045-.03-3.555-.045-3.555L6.63 4.83c-1.83-.03-2.295 0-2.37.165zm4.17 3.96l.045 3.57.87.045.855.045V13.8H4.8v-1.185l.87-.045.855-.045v-5.85L5.67 6.63l-.87-.045V5.4h3.6l.03 3.555z" fill="#00A110"/></svg>