<svg width="25" height="25" fill="none" xmlns="http://www.w3.org/2000/svg"><g clip-path="url(#clip0_292_402)"><path d="M.3 6.8c-.425.425-.425 14.975 0 15.4.175.175.95.3 1.75.3 1.15 0 1.45.075 1.45.4 0 .225.375.775.85 1.25.75.75 1 .85 2.15.85s1.4-.1 2.15-.85c.475-.475.85-1.025.85-1.25 0-.35.45-.4 3.5-.4s3.5.05 3.5.4c0 .225.375.775.85 1.25.75.75 1 .85 2.15.85s1.4-.1 2.15-.85c.475-.475.85-1.025.85-1.25 0-.3.25-.4.95-.4.525 0 1.075-.125 1.25-.3.2-.2.3-1.4.3-3.725V15.05l-1.05-1.55c-.575-.875-1.45-2-1.95-2.55l-.925-.95H15.5V8.55c0-.8-.125-1.575-.3-1.75-.425-.425-14.475-.425-14.9 0zm13.9 1c.425.425.425 12.975 0 13.4-.2.2-1.125.3-2.5.3-1.85 0-2.2-.075-2.2-.4 0-.225-.375-.775-.85-1.25-.75-.75-1-.85-2.15-.85s-1.4.1-2.15.85c-.475.475-.85 1.025-.85 1.25 0 .5-1.725.575-2.2.1-.425-.425-.425-12.975 0-13.4.425-.425 12.475-.425 12.9 0zm6.325 3.7l.6.475-1.5.025c-.85 0-1.65.125-1.825.3-.4.4-.4 4 0 4.4.2.2 1.3.3 3.25.3H24v1.95c0 1.175-.125 2.075-.3 2.25-.425.425-1.2.375-1.2-.1 0-.225-.375-.775-.85-1.25-.75-.75-1-.85-2.15-.85s-1.4.1-2.15.85c-.475.475-.85 1.025-.85 1.25 0 .475-.275.525-.7.1-.425-.425-.425-9.475 0-9.9.175-.175 1.05-.3 2.225-.3 1.55 0 2.025.1 2.5.5zm2.4 2.85c.45.65.825 1.3.825 1.425 0 .35-4.6.275-4.95-.075-.4-.4-.375-2.025 0-2.4.2-.2.875-.3 1.8-.25 1.45.075 1.5.1 2.325 1.3zM7.75 20.75c1.075 1.075.275 3-1.25 3-.95 0-1.75-.8-1.75-1.75s.8-1.75 1.75-1.75c.425 0 .975.225 1.25.5zm13 0c1.075 1.075.275 3-1.25 3-.95 0-1.75-.8-1.75-1.75s.8-1.75 1.75-1.75c.425 0 .975.225 1.25.5z" fill="#000"/></g><defs><clipPath id="clip0_292_402"><path fill="#fff" d="M0 0h25v25H0z"/></clipPath></defs></svg>