<svg width="25" height="25" fill="none" xmlns="http://www.w3.org/2000/svg"><path d="M9.3 1.025c-1.775.7-3.6 2.525-4.275 4.35-.375 1-.525 1.975-.525 3.45 0 3.675 2.05 8.425 5.75 13.375 1.025 1.325 1.85 2.2 2.175 2.25 1.325.2 6.675-8.55 7.7-12.575 1.625-6.4-1.775-11.4-7.7-11.35-1.175 0-2.25.175-3.125.5zm6.075 1.325c1.525.7 2.9 2.175 3.5 3.725.525 1.4.425 4.35-.225 6.3-1 2.925-5.15 10-6.05 10.3-.65.225-4.625-6.05-5.875-9.25-1.025-2.65-1.275-5.6-.6-7.325 1-2.65 3.5-4.35 6.375-4.35 1.175 0 1.975.175 2.875.6z" fill="#000"/><path d="M10.85 5.75c-.275.1-.825.55-1.175 1-.9 1.05-.975 3.325-.15 4.35 1.55 1.95 4.75 1.875 5.975-.175 1.025-1.65.375-4.275-1.25-5.1-.7-.35-2.6-.4-3.4-.075zm3.275 1.625c.475.45.625.875.625 1.625s-.15 1.175-.625 1.625c-.45.475-.875.625-1.625.625s-1.175-.15-1.625-.625c-.475-.45-.625-.875-.625-1.625 0-1.4.85-2.25 2.25-2.25.75 0 1.175.15 1.625.625z" fill="#000"/></svg>