<svg width="30" height="30" fill="none" xmlns="http://www.w3.org/2000/svg"><path fill="#fff" d="M0 0h30v30H0z"/><path d="M.322 8.145c.41-1.647 1.125-2.913 2.315-4.108C3.96 2.701 5.525 1.934 7.394 1.7L.322 8.145zm0 0c-.726 2.853-.199 5.665 1.547 8.308 1.12 1.694 2.567 3.246 5.22 5.613L.323 8.145zM7.52 2.69h-.001c-1.648.207-3.006.874-4.172 2.05l-.001.001C2.284 5.81 1.659 6.915 1.293 8.386l-.002.005c-.65 2.557-.192 5.082 1.412 7.51 1.049 1.587 2.421 3.073 5.052 5.42h0a312.26 312.26 0 004.067 3.518c.764.651 1.482 1.26 2.023 1.713a67.24 67.24 0 00.848.698l.02.016.029.002c.057.002.136.003.258.003a5.828 5.828 0 00.286-.005l.022-.016.189-.152c.163-.134.388-.32.66-.547.542-.454 1.26-1.063 2.025-1.714a283.396 283.396 0 004.061-3.516h.001c2.642-2.358 4.004-3.838 5.053-5.42 1.604-2.428 2.063-4.953 1.412-7.51l-.002-.005c-.366-1.471-.99-2.576-2.053-3.644l.71-.705-.71.705c-1.044-1.05-2.135-1.641-3.606-1.953-.325-.069-.844-.115-1.389-.12-.553-.006-1.027.031-1.277.088h0l-.008.002c-1.775.384-3.133 1.255-4.424 2.898h0l-.005.007-.164.205-.795.994-.778-1.008-.154-.2c-1.278-1.613-2.617-2.482-4.316-2.87h-.003c-.198-.046-.602-.092-1.074-.112a7.787 7.787 0 00-1.141.018z" stroke="#000" stroke-width="2"/></svg>