<svg width="40" height="37" fill="none" xmlns="http://www.w3.org/2000/svg"><path d="M8.146.718C5.122 1.67 2.449 4.027.87 7.11c-1.315 2.493-1.096 8.521.35 11.785 2.236 5.031 5.917 8.793 14.681 14.912l4.076 2.855 4.426-3.127c9.422-6.572 13.235-10.787 14.9-16.544C41.758 8.696 37.508 1.262 29.882.446 26.946.13 24.404.9 21.95 2.803L19.978 4.39l-1.972-1.587C15.07.537 11.345-.279 8.146.718zm7.274 2.448c1.447.77 2.849 2.085 3.857 3.58l.701.998.701-.997c2.104-3.128 4.383-4.352 8.108-4.397 3.9 0 6.617 1.632 8.414 5.212 1.14 2.221 1.227 2.81 1.052 5.53-.263 4.397-1.885 7.524-5.96 11.694-1.841 1.858-5.39 4.805-7.845 6.527l-4.426 3.128-4.514-3.128c-5.828-4.08-10.78-9.065-12.446-12.646-1.052-2.266-1.27-3.309-1.27-6.164 0-3.037.175-3.671 1.314-5.62 1.884-3.173 5.171-4.941 8.59-4.624 1.358.136 3.023.544 3.725.907z" fill="#000"/></svg>