<svg width="30" height="30" fill="none" xmlns="http://www.w3.org/2000/svg"><path fill="#fff" d="M0 0h30v30H0z"/><path d="M7.394 1.7c-1.869.233-3.433 1-4.757 2.336C1.447 5.232.732 6.498.322 8.145c-.726 2.853-.199 5.665 1.547 8.308 1.12 1.694 2.567 3.246 5.22 5.613 1.688 1.506 6.839 5.9 7.09 6.047.235.14.323.159.821.159.498 0 .586-.018.82-.159.252-.146 5.414-4.547 7.09-6.047 2.666-2.378 4.102-3.925 5.22-5.613 1.747-2.643 2.274-5.455 1.548-8.308-.41-1.647-1.125-2.913-2.315-4.108-1.183-1.19-2.449-1.875-4.107-2.226-.832-.176-2.367-.194-3.094-.03-2.027.44-3.58 1.453-4.998 3.258L15 5.244l-.158-.205c-1.4-1.77-2.93-2.783-4.881-3.228-.58-.135-1.916-.194-2.567-.112z" fill="#00A110"/></svg>