<svg width="25" height="25" fill="none" xmlns="http://www.w3.org/2000/svg"><path d="M1.125 3.325C1.05 3.5 1.025 6.4 1.05 9.75l.075 6.125h22.75V3.125L12.55 3.05c-9-.05-11.35 0-11.425.275zM4.5 9.5V15H2V4h2.5v5.5zm15 0V15h-14V4h14v5.5zm3.5 0V15h-2.5V4H23v5.5z" fill="#000"/><path d="M11.35 5.725c-.625.275-1.6 1.45-1.6 1.925 0 .2-.225.35-.5.35-.8 0-1.75 1.1-1.75 2 0 .95 1.025 2.075 1.8 1.95.775-.1.85-.65.1-.95-1.275-.475-1.125-1.75.225-2 .55-.1.775-.325.925-.925a2 2 0 013.9 0c.15.6.375.825.925.925 1.35.25 1.5 1.525.225 2-.75.3-.675.85.1.95.775.125 1.8-1 1.8-1.95 0-.9-.95-2-1.75-2-.275 0-.5-.175-.5-.375s-.3-.725-.675-1.125c-.75-.85-2.225-1.2-3.225-.775zM1.125 16.75c-.35.55.25.75 2.2.75 5.2 0 12.75 1.05 16.5 2.275 1.3.425 2.35.65 2.475.525s.2-1 .15-1.95c-.05-1.325-.15-1.725-.45-1.725-.275 0-.4.35-.45 1.3l-.075 1.3-.925-.325c-.825-.275-.95-.45-1.05-1.3-.15-1.25-.85-1.35-.95-.15-.075.75-.15.825-.625.7-3.8-1.075-16.35-2.125-16.8-1.4z" fill="#000"/><path d="M1 18.45c0 .425.3.5 2.95.625 6.35.35 11.575 1.775 15.375 4.225 1.475.95 1.725.775 1.625-1.2-.05-1.1-.175-1.475-.45-1.475-.25 0-.4.3-.45.925l-.075.9-.725-.4c-.55-.325-.75-.625-.8-1.3-.075-1-.775-1.225-.9-.3-.075.45-.2.55-.5.4C13.125 19.2 7.075 18 2.5 18c-1.3 0-1.5.075-1.5.45z" fill="#000"/></svg>