<svg width="25" height="25" fill="none" xmlns="http://www.w3.org/2000/svg"><path d="M2.275 4.85C1.1 5.5 1.025 5.975 1 12.45c0 6.6.1 7.175 1.375 7.75.925.425 19.325.425 20.25 0C23.9 19.625 24 19.05 24 12.525c0-6.475-.1-7.05-1.275-7.675-.975-.5-19.55-.5-20.45 0zM22.5 6c.475.475.5.825.5 6.5s-.025 6.025-.5 6.5c-.475.475-.825.5-10 .5s-9.525-.025-10-.5c-.475-.475-.5-.825-.5-6.5s.025-6.025.5-6.5c.475-.475.825-.5 10-.5s9.525.025 10 .5z" fill="#000"/><path d="M4.3 8.3c-.4.4-.4 2.5 0 2.9.4.4 3 .4 3.4 0 .4-.4.4-2.5 0-2.9C7.525 8.125 6.775 8 6 8c-.775 0-1.525.125-1.7.3zM7 9.75c0 .7-.05.75-1 .75s-1-.05-1-.75S5.05 9 6 9s1 .05 1 .75zm6.5-.25c0 .5.1.5 3.7.45 3.075-.075 3.675-.125 3.675-.45s-.6-.375-3.675-.45C13.6 9 13.5 9 13.5 9.5zm-9.5 5c0 .475.125.525 1.7.45 1.3-.05 1.675-.15 1.675-.45 0-.3-.375-.4-1.675-.45-1.575-.075-1.7-.025-1.7.45zm4.5 0c0 .475.125.525 1.7.45 1.3-.05 1.675-.15 1.675-.45 0-.3-.375-.4-1.675-.45-1.575-.075-1.7-.025-1.7.45zm4.5 0c0 .475.125.525 1.7.45 1.3-.05 1.675-.15 1.675-.45 0-.3-.375-.4-1.675-.45-1.575-.075-1.7-.025-1.7.45zm4.5 0c0 .475.125.525 1.7.45 1.3-.05 1.675-.15 1.675-.45 0-.3-.375-.4-1.675-.45-1.575-.075-1.7-.025-1.7.45zM4 17c0 .5.1.5 3.7.45 3.075-.075 3.675-.125 3.675-.45s-.6-.375-3.675-.45C4.1 16.5 4 16.5 4 17z" fill="#000"/></svg>