<svg width="282" height="112" fill="none" xmlns="http://www.w3.org/2000/svg"><path d="M0 62.106c4.834 11.353 16.085 19.317 29.198 19.317C24.365 70.065 13.113 62.106 0 62.106zm29.2 19.316c9.634 0 17.928-5.73 21.67-13.966-9.63 0-17.924 5.73-21.67 13.966z" fill="#12B36A"/><path fill-rule="evenodd" clip-rule="evenodd" d="M29.2 65.546c13.141 0 23.794-10.659 23.794-23.813 0-13.149-10.653-23.813-23.793-23.813-13.143 0-23.793 10.664-23.793 23.813 0 13.154 10.65 23.813 23.793 23.813zm0-11.905c6.57 0 11.896-5.33 11.896-11.907S35.77 29.828 29.201 29.828c-6.572 0-11.898 5.329-11.898 11.905 0 6.577 5.326 11.908 11.898 11.908z" fill="#FEBE10"/><path d="M182.281 41.734h9.953v38.609h-9.953V65.307h-17.377v15.036h-9.952v-38.61h9.952v14.23h17.377v-14.23zm14.64 9.577h12.391v29.032h9.952V51.311h12.24v-9.577h-34.583v9.577zm82.841 20.634v8.207c-1.697.85-3.816 1.273-6.291 1.273-5.17 0-7.773-2.251-8.816-5.878l-.166.243c-3.01 3.783-7.175 5.635-12.576 5.635-5.172 0-9.57-1.93-13.272-5.868-3.625-3.939-5.476-8.804-5.476-14.519 0-5.71 1.851-10.498 5.476-14.436 3.702-3.937 8.1-5.948 13.272-5.948 5.161 0 9.194 1.7 12.169 5.16v-4.078h9.953v27.311c0 2.334 1.061 3.535 3.182 3.535.992-.002 1.84-.213 2.545-.637zm-15.273-10.91c0-3.16-1.003-5.786-3.086-7.795-2.006-2.083-4.552-3.089-7.639-3.089-3.086 0-5.631 1.003-7.638 3.09-2.006 2.008-3.008 4.634-3.008 7.795 0 3.168 1.002 5.794 3.008 7.88 2.007 2.006 4.552 3.01 7.638 3.01 3.087 0 5.633-1.004 7.639-3.01 2.083-2.086 3.086-4.712 3.086-7.88zM72.96 41.735l-.297 14.506c-.07 5.873-.282 8.774-1.131 12.096-.777 3.186-2.262 4.085-4.591 4.085-.78 0-1.485-.072-2.052-.285v8.207c.777.424 2.052.634 3.747.634 6.997-.21 10.39-3.515 12.088-9.458 1.2-4.246 1.414-7.5 1.626-12.38l.223-7.831h12.358V80.34h9.952V41.73H72.96v.003zm47.932 21.91c1.072 6.59 6.292 8.747 11.589 8.747 3.509 0 7.187-1.372 9.449-3.426l6.138 6.181c-3.665 4.063-8.769 6.28-15.743 6.28-9.765 0-21.543-5.77-21.543-20.388 0-14.615 11.343-20.384 20.976-20.384 12.184 0 17.226 5.73 17.226 12.153.003 10.5-13.333 15.35-28.092 10.837zm17.288-9.7c0-2.995-2.96-4.333-6.276-4.333-5.067 0-9.457 2.14-10.791 7.65 10.323 2.985 17.067.758 17.067-3.317z" fill="#000"/></svg>