<svg width="121" height="121" fill="none" xmlns="http://www.w3.org/2000/svg"><path fill-rule="evenodd" clip-rule="evenodd" d="M60.5 0C27.14 0 0 27.14 0 60.5S27.14 121 60.5 121c33.358 0 60.5-27.14 60.5-60.5S93.858 0 60.5 0z" fill="#fff"/><path fill-rule="evenodd" clip-rule="evenodd" d="M91.031 17.106c-4.617 11.843-15.13 14.307-30.357 14.307-1.634 0-3.253-.025-4.815-.048-1.51-.021-2.94-.044-4.34-.044a85.88 85.88 0 00-3.733.07c2.132-5.237 5.537-8.796 10.383-10.955 6.755-3.006 15.538-3.037 23.288-3.06 3.376-.013 6.609-.026 9.574-.27z" fill="#00923A"/><path fill-rule="evenodd" clip-rule="evenodd" d="M95.778 20.905c-6.83 14.878-22.052 16.368-35.1 16.368-2.865 0-5.609-.069-8.15-.085L49.24 50.041c16.831-13.721 39.09-.118 36.71 20.589-1.604 13.944-11.545 23.064-22.062 25.685-11.458 2.857-24.151-1.419-29.843-13.095-.604-1.233-1.655-3.705-2.056-5.026l12.082-3.104c.213.697.576 1.37.956 1.984 8.089 13.046 24.48 6.522 26.33-7.012 1.884-13.768-17.434-21.101-26.237-5.01l-10.715-4.567-.185-.082 5.167-20.744c.319-1.475 1.393-5.594 1.578-6.27 5.84-21.476 24.734-21.815 39.89-21.872a52.834 52.834 0 00-20.352-4.052C31.212 7.464 7.469 31.207 7.469 60.5c0 29.292 23.743 53.035 53.035 53.035 29.293 0 53.036-23.743 53.036-53.035 0-15.747-6.866-29.882-17.76-39.595z" fill="#E52322"/></svg>