<svg width="40" height="40" viewBox="0 0 40 40" fill="none" xmlns="http://www.w3.org/2000/svg">
<path d="M35.6553 17.7299C32.9023 10.3048 27.8938 5.24258 27.6819 5.03078L25.6815 3.03023V10.5469C25.6815 11.193 25.1558 11.7188 24.5096 11.7188C23.8634 11.7188 23.3377 11.193 23.3377 10.5469C23.3377 4.73133 18.6064 0 12.7909 0H11.619V1.17188C11.619 6.64484 8.02765 10.5873 5.29827 15.6556C2.54499 20.7681 2.67671 27.0317 5.64194 32.002C8.60405 36.967 13.9621 40 19.7298 40H20.2742C25.6396 40 30.6737 37.3677 33.7403 32.9587C36.8063 28.5504 37.5207 22.761 35.6553 17.7299ZM31.8162 31.6204C29.1874 35.3998 24.8727 37.6562 20.2742 37.6562H19.7298C14.8042 37.6562 10.1773 35.0295 7.65468 30.8012C5.10952 26.5351 4.99734 21.1575 7.36171 16.7669C9.9439 11.972 13.4509 8.01758 13.9116 2.42C17.9065 2.9682 20.9938 6.40375 20.9938 10.5468C20.9938 12.4853 22.5709 14.0624 24.5094 14.0624C26.448 14.0624 28.0251 12.4853 28.0251 10.5468V9.01461C29.6614 11.1028 31.9444 14.4631 33.4576 18.5445C35.0562 22.856 34.4272 27.8663 31.8162 31.6204Z" fill="white"/>
<path d="M18.6502 20C18.6502 18.0615 17.0731 16.4844 15.1346 16.4844C13.1961 16.4844 11.619 18.0615 11.619 20C11.619 21.9385 13.1961 23.5156 15.1346 23.5156C17.0731 23.5156 18.6502 21.9385 18.6502 20ZM13.9627 20C13.9627 19.3538 14.4884 18.8281 15.1346 18.8281C15.7808 18.8281 16.3065 19.3538 16.3065 20C16.3065 20.6462 15.7808 21.1719 15.1346 21.1719C14.4884 21.1719 13.9627 20.6462 13.9627 20ZM24.5096 25.8594C22.5711 25.8594 20.994 27.4365 20.994 29.375C20.994 31.3135 22.5711 32.8906 24.5096 32.8906C26.4481 32.8906 28.0252 31.3135 28.0252 29.375C28.0252 27.4365 26.4481 25.8594 24.5096 25.8594ZM24.5096 30.5469C23.8634 30.5469 23.3377 30.0212 23.3377 29.375C23.3377 28.7288 23.8634 28.2031 24.5096 28.2031C25.1558 28.2031 25.6815 28.7288 25.6815 29.375C25.6815 30.0212 25.1558 30.5469 24.5096 30.5469ZM13.0553 30.9666L24.7707 16.9081L26.5707 18.4081L14.8553 32.4666L13.0553 30.9666Z" fill="white"/>
</svg>
