<svg width="40" height="40" viewBox="0 0 40 40" fill="none" xmlns="http://www.w3.org/2000/svg">
<g clip-path="url(#clip0_718_463)">
<path d="M39 22.0001H30V15C30 14.8686 29.9742 14.7386 29.924 14.6172C29.8737 14.4958 29.8 14.3856 29.7072 14.2927C29.6143 14.1998 29.504 14.1261 29.3826 14.0759C29.2613 14.0257 29.1312 13.9998 28.9999 13.9999H27V7.00012C27 6.82964 26.9565 6.66197 26.8735 6.51305C26.7905 6.36413 26.6708 6.2389 26.5258 6.14926C26.3808 6.05962 26.2152 6.00854 26.0449 6.00087C25.8746 5.99321 25.7052 6.02921 25.5527 6.10547L21.5526 8.10534C21.3867 8.18864 21.2471 8.31639 21.1496 8.47437C21.052 8.63234 21.0002 8.81431 21 8.99999V13.9999H18V7.00012C18 6.82964 17.9565 6.66197 17.8735 6.51305C17.7905 6.36413 17.6708 6.2389 17.5258 6.14926C17.3808 6.05962 17.2152 6.00854 17.0449 6.00087C16.8746 5.99321 16.7052 6.02921 16.5527 6.10547L12.5526 8.10534C12.3867 8.18864 12.2471 8.31639 12.1496 8.47437C12.052 8.63234 12.0002 8.81431 12 8.99999V13.9999H8.99999V7.00012C9.00003 6.82964 8.95648 6.66197 8.87349 6.51305C8.79049 6.36413 8.6708 6.2389 8.52578 6.14926C8.38076 6.05962 8.21524 6.00854 8.04492 6.00087C7.87461 5.99321 7.70516 6.02921 7.55268 6.10547L3.55265 8.10534C3.3867 8.18864 3.24716 8.31639 3.14957 8.47437C3.05199 8.63234 3.0002 8.81431 3 8.99999V13.9999H1.00012C0.868772 13.9998 0.738698 14.0257 0.617335 14.0759C0.495972 14.1261 0.3857 14.1998 0.29282 14.2927C0.19994 14.3856 0.126273 14.4958 0.0760296 14.6172C0.0257861 14.7386 -4.92082e-05 14.8686 7.03629e-08 15V39C-4.92082e-05 39.1313 0.0257861 39.2614 0.0760296 39.3828C0.126273 39.5041 0.19994 39.6144 0.29282 39.7073C0.3857 39.8002 0.495972 39.8738 0.617335 39.9241C0.738698 39.9743 0.868772 40.0001 1.00012 40.0001H39C39.2651 40.0001 39.5196 39.895 39.7071 39.7071C39.895 39.5196 40.0001 39.2651 40.0001 39V22.9999C40.0001 22.7347 39.895 22.4802 39.7071 22.2927C39.5196 22.1052 39.2651 21.9997 39 22.0001ZM22.9999 9.61818L25.0001 8.61806V13.9999H22.9999V9.61818ZM13.9999 9.61818L16.0001 8.61806V13.9999H13.9999V9.61818ZM4.99987 9.61818L7.00012 8.61806V13.9999H4.99987V9.61818ZM1.99987 16.0001H28.0001V37.9998H22.0001V27C22.0001 26.7349 21.895 26.4803 21.7071 26.2928C21.6143 26.1999 21.5041 26.1262 21.3827 26.0759C21.2614 26.0256 21.1313 25.9998 21 25.9999H8.99999C8.86865 25.9998 8.73858 26.0256 8.61724 26.0759C8.4959 26.1262 8.38566 26.1999 8.29284 26.2928C8.19991 26.3856 8.1262 26.4959 8.07593 26.6172C8.02566 26.7386 7.99981 26.8686 7.99987 27V37.9998H1.99987V16.0001ZM10.0001 37.9998V28.0001H19.9999V37.9998H10.0001ZM37.9998 37.9998H30V24H37.9998V37.9998Z" fill="white"/>
<path d="M33 28.0001H34.9998C35.552 28.0001 36 27.5523 36 27C36 26.4477 35.5521 25.9999 34.9998 25.9999H33C32.4478 25.9999 31.9999 26.4477 31.9999 27C31.9999 27.5523 32.4477 28.0001 33 28.0001ZM33 31.9999H34.9998C35.552 31.9999 36 31.5524 36 31.0001C36 30.4478 35.5521 30 34.9998 30H33C32.4478 30 31.9999 30.4478 31.9999 31.0001C31.9999 31.5524 32.4477 31.9999 33 31.9999ZM13.9999 4.99987C14.1312 4.99997 14.2613 4.97418 14.3826 4.92398C14.504 4.87378 14.6143 4.80014 14.7071 4.70729C14.8 4.61444 14.8737 4.5042 14.924 4.38285C14.9742 4.26151 15 4.13146 15 4.00012C15 3.78 15 3.72075 15.8163 3.44822C16.5799 3.19444 18 2.72062 18 1.00012C18 0.447937 17.5521 0 16.9999 0C16.4476 0 16.0001 0.447843 16.0001 1.00012C16.0001 1.21987 16.0001 1.27922 15.1835 1.55166C14.42 1.80572 13.0001 2.27934 13.0001 4.00012C13 4.13144 13.0258 4.2615 13.076 4.38285C13.1262 4.50419 13.1998 4.61444 13.2927 4.70728C13.4802 4.89478 13.7347 5.00025 13.9999 4.99987ZM22.9999 4.99987C23.1312 4.99997 23.2613 4.97418 23.3826 4.92398C23.504 4.87378 23.6143 4.80014 23.7071 4.70729C23.8 4.61444 23.8737 4.5042 23.9239 4.38285C23.9742 4.26151 24 4.13146 24 4.00012C24 3.78 24 3.72075 24.8163 3.44822C25.5799 3.19444 27 2.72062 27 1.00012C27 0.447937 26.5521 0 25.9999 0C25.4476 0 25.0001 0.447843 25.0001 1.00012C25.0001 1.21987 25.0001 1.27922 24.1835 1.55166C23.42 1.80572 22.0001 2.27934 22.0001 4.00012C22 4.13144 22.0258 4.2615 22.076 4.38285C22.1262 4.50419 22.1998 4.61444 22.2927 4.70728C22.4802 4.89478 22.7347 5.00025 22.9999 4.99987ZM4.99987 4.99987C5.13121 4.99997 5.26127 4.97418 5.38263 4.92398C5.50399 4.87378 5.61427 4.80014 5.70715 4.70729C5.80004 4.61444 5.87371 4.5042 5.92396 4.38285C5.97421 4.26151 6.00005 4.13146 6 4.00012C6 3.78 6 3.72075 6.81628 3.44822C7.57987 3.19444 8.99999 2.72062 8.99999 1.00012C8.99999 0.447937 8.55215 0 7.99987 0C7.44759 0 7.00012 0.447843 7.00012 1.00012C7.00012 1.21987 7.00012 1.27922 6.18347 1.55166C5.41997 1.80572 4.00012 2.27934 4.00012 4.00012C3.99999 4.13144 4.02577 4.2615 4.07598 4.38285C4.12618 4.50419 4.19984 4.61444 4.29272 4.70728C4.48022 4.89478 4.73475 5.00025 4.99987 4.99987Z" fill="white"/>
</g>
<defs>
<clipPath id="clip0_718_463">
<rect width="40" height="40" fill="white"/>
</clipPath>
</defs>
</svg>
