<svg width="40" height="40" viewBox="0 0 40 40" fill="none" xmlns="http://www.w3.org/2000/svg">
<g clip-path="url(#clip0_718_475)">
<path d="M33.3333 28.3333C31.5 28.3333 30 26.8333 30 25C30 23.1667 31.5 21.6667 33.3333 21.6667C35.1667 21.6667 36.6667 23.1667 36.6667 25C36.6667 26.8333 35.1667 28.3333 33.3333 28.3333ZM33.3333 23.3333C32.3333 23.3333 31.6667 24 31.6667 25C31.6667 26 32.3333 26.6667 33.3333 26.6667C34.3333 26.6667 35 26 35 25C35 24 34.3333 23.3333 33.3333 23.3333ZM39.1667 36.6667C38.6667 36.6667 38.3333 36.3333 38.3333 35.8333V34.1667C38.3333 32.8333 37.1667 31.6667 35.8333 31.6667H30.8333C30.3333 31.6667 30 31.3333 30 30.8333C30 30.3333 30.3333 30 30.8333 30H35.8333C38.1667 30 40 31.8333 40 34.1667V35.8333C40 36.3333 39.6667 36.6667 39.1667 36.6667ZM6.66667 28.3333C4.83333 28.3333 3.33333 26.8333 3.33333 25C3.33333 23.1667 4.83333 21.6667 6.66667 21.6667C8.5 21.6667 10 23.1667 10 25C10 26.8333 8.5 28.3333 6.66667 28.3333ZM6.66667 23.3333C5.66667 23.3333 5 24 5 25C5 26 5.66667 26.6667 6.66667 26.6667C7.66667 26.6667 8.33333 26 8.33333 25C8.33333 24 7.66667 23.3333 6.66667 23.3333ZM0.833333 36.6667C0.333333 36.6667 0 36.3333 0 35.8333V34.1667C0 31.8333 1.83333 30 4.16667 30H9.16667C9.66667 30 10 30.3333 10 30.8333C10 31.3333 9.66667 31.6667 9.16667 31.6667H4.16667C2.83333 31.6667 1.66667 32.8333 1.66667 34.1667V35.8333C1.66667 36.3333 1.33333 36.6667 0.833333 36.6667ZM20 29.1667C17.1667 29.1667 15 27 15 24.1667C15 21.3333 17.1667 19.1667 20 19.1667C22.8333 19.1667 25 21.3333 25 24.1667C25 27 22.8333 29.1667 20 29.1667ZM20 20.8333C18.1667 20.8333 16.6667 22.3333 16.6667 24.1667C16.6667 26 18.1667 27.5 20 27.5C21.8333 27.5 23.3333 26 23.3333 24.1667C23.3333 22.3333 21.8333 20.8333 20 20.8333ZM28.3333 40C27.8333 40 27.5 39.6667 27.5 39.1667V35.8333C27.5 34.5 26.3333 33.3333 25 33.3333H15C13.6667 33.3333 12.5 34.5 12.5 35.8333V39.1667C12.5 39.6667 12.1667 40 11.6667 40C11.1667 40 10.8333 39.6667 10.8333 39.1667V35.8333C10.8333 33.5 12.6667 31.6667 15 31.6667H25C27.3333 31.6667 29.1667 33.5 29.1667 35.8333V39.1667C29.1667 39.6667 28.8333 40 28.3333 40ZM15.3333 16.6667C15.1667 16.6667 15 16.6667 15 16.5C14.6667 16.3333 14.5 16 14.5 15.6667L15.3333 10.6667L11.8333 7.16667C11.6667 7 11.6667 6.66667 11.6667 6.33333C11.8333 6 12 5.83333 12.3333 5.83333L17.1667 5L19.3333 0.5C19.3333 0.166667 19.6667 0 20 0C20.3333 0 20.6667 0.166667 20.8333 0.5L22.8333 5L27.5 5.66667C27.8333 5.66667 28 6 28.1667 6.16667C28.3333 6.33333 28.1667 6.83333 28 7L24.5 10.5L25.3333 15.5C25.3333 15.8333 25.3333 16.1667 25 16.3333C24.6667 16.5 24.3333 16.5 24.1667 16.3333L20 14.1667L15.8333 16.5C15.6667 16.6667 15.5 16.6667 15.3333 16.6667ZM14.1667 7.16667L16.8333 9.83333C17 10 17.1667 10.3333 17 10.5L16.5 14.3333L19.6667 12.6667C19.8333 12.5 20.1667 12.5 20.5 12.6667L23.6667 14.3333L23 10.6667C23 10.3333 23 10.1667 23.1667 10L25.8333 7.33333L22.3333 6.83333C22 6.83333 21.8333 6.66667 21.6667 6.33333L20.1667 3L18.6667 6.33333C18.3333 6.33333 18 6.5 17.8333 6.66667L14.1667 7.16667ZM29.8333 15C29.6667 15 29.5 15 29.3333 14.8333C29 14.6667 29 14.3333 29 14L29.6667 9.83333C29.6667 9.33333 30.1667 9 30.6667 9.16667C31.1667 9.16667 31.5 9.66667 31.3333 10.1667L31 12.6667L33.1667 11.5C33.5 11.3333 33.6667 11.3333 34 11.5L36.1667 12.6667L35.5 10C35.5 9.66667 35.5 9.5 35.6667 9.33333L37.5 7.5L35 7.16667C34.6667 7.16667 34.5 7 34.3333 6.66667L33.3333 4.5L32.3333 6.66667C32.1667 7.16667 31.6667 7.33333 31.1667 7C30.6667 6.83333 30.5 6.33333 30.8333 5.83333L32.6667 2C32.6667 1.83333 33 1.66667 33.3333 1.66667C33.6667 1.66667 34 1.83333 34.1667 2.16667L35.8333 5.66667L39.5 6.16667C39.8333 6.16667 40 6.5 40.1667 6.66667C40.3333 7 40.1667 7.33333 40 7.5L37.3333 10.1667L38 14C38 14.3333 38 14.6667 37.6667 14.8333C37.3333 15 37 15 36.8333 14.8333L33.3333 13.1667L30.1667 15H29.8333ZM10.1667 15C10.1667 15 10 15 9.83333 14.8333L6.66667 13.1667L3.5 14.8333C3.16667 15 2.83333 15 2.5 14.8333C2.33333 14.6667 2.16667 14.3333 2.16667 14L2.83333 10.1667L0.166667 7.5C0 7.33333 0 7 0 6.66667C0.166667 6.33333 0.333333 6.16667 0.666667 6.16667L4.33333 5.66667L6 2.16667C6 1.83333 6.33333 1.66667 6.66667 1.66667C7 1.66667 7.33333 1.83333 7.5 2.16667L9.33333 6C9.5 6.33333 9.33333 6.83333 9 7.16667C8.33333 7.33333 7.83333 7.16667 7.66667 6.66667L6.66667 4.5L5.66667 6.66667C5.5 7 5.33333 7.16667 5 7.16667L2.5 7.5L4.33333 9.33333C4.5 9.5 4.66667 9.83333 4.5 10L4.16667 12.6667L6.33333 11.5C6.66667 11.3333 6.83333 11.3333 7.16667 11.5L9.33333 12.6667L8.66667 10C8.66667 9.5 8.83333 9.16667 9.33333 9C9.83333 9 10.1667 9.16667 10.3333 9.66667L11 13.8333C11 14.1667 10.8333 14.5 10.6667 14.6667C10.5 15 10.3333 15 10.1667 15Z" fill="white"/>
</g>
<defs>
<clipPath id="clip0_718_475">
<rect width="40" height="40" fill="white"/>
</clipPath>
</defs>
</svg>
