<svg width="40" height="40" viewBox="0 0 40 40" fill="none" xmlns="http://www.w3.org/2000/svg">
<g clip-path="url(#clip0_718_487)">
<path d="M39.9892 35.4009L39.0605 22.2295C38.96 20.8041 37.7619 19.6875 36.3329 19.6875H25.4789L25.0581 12.114C24.9777 10.6657 23.7784 9.53125 22.3281 9.53125H20.0562V6.875C20.0562 3.08414 16.972 0 13.1812 0C9.39032 0 6.30618 3.08414 6.30618 6.875V9.53125H4.03415C2.58376 9.53125 1.38446 10.6657 1.30407 12.114L0.00680397 35.4648C-0.0584304 36.6388 0.367585 37.8019 1.17563 38.656C1.98352 39.5102 3.12126 40 4.29704 40H35.703C36.8909 40 38.0366 39.5016 38.8464 38.6327C39.6562 37.7637 40.0727 36.5858 39.9892 35.4009ZM37.1318 37.0348C36.7584 37.4355 36.2509 37.6562 35.703 37.6562H21.0812C20.5333 37.6562 20.0259 37.4355 19.6523 37.0347C19.2788 36.6338 19.0943 36.1122 19.1329 35.5657L20.0617 22.3943C20.069 22.2958 20.1131 22.2037 20.1854 22.1364C20.2576 22.069 20.3526 22.0315 20.4513 22.0312H36.333C36.4317 22.0315 36.5267 22.069 36.5989 22.1364C36.6712 22.2037 36.7153 22.2958 36.7226 22.3943L37.6513 35.5656C37.6898 36.1123 37.5053 36.634 37.1318 37.0348ZM8.64993 6.875C8.64993 4.37648 10.6827 2.34375 13.1812 2.34375C15.6797 2.34375 17.7124 4.37648 17.7124 6.875V9.53125H8.64993V6.875ZM2.87821 37.0454C2.50548 36.6514 2.3168 36.1362 2.34688 35.5948L3.64415 12.244C3.64972 12.1443 3.69323 12.0505 3.76575 11.9819C3.83827 11.9133 3.93431 11.875 4.03415 11.875H6.3061V13.0469C6.3061 13.6941 6.83079 14.2188 7.47798 14.2188C8.12516 14.2188 8.64985 13.6941 8.64985 13.0469V11.875H17.7123V13.0469C17.7123 13.6941 18.237 14.2188 18.8842 14.2188C19.5314 14.2188 20.0561 13.6941 20.0561 13.0469V11.875H22.328C22.4278 11.875 22.5238 11.9133 22.5964 11.9819C22.6689 12.0505 22.7124 12.1443 22.718 12.244L23.1316 19.6875H20.4513C19.0223 19.6875 17.8241 20.8041 17.7237 22.2295L16.7948 35.4009C16.7395 36.1851 16.9045 36.9656 17.2564 37.6562H4.29704C3.75469 37.6562 3.25087 37.4393 2.87821 37.0454Z" fill="white"/>
<path d="M31.7794 24.375C31.1322 24.375 30.6075 24.8997 30.6075 25.5469V26.9642C30.6075 28.1643 29.6312 29.1406 28.4312 29.1406C27.2311 29.1406 26.2548 28.1643 26.2548 26.9642V25.5469C26.2548 24.8997 25.7301 24.375 25.0829 24.375C24.4357 24.375 23.911 24.8997 23.911 25.5469V26.9642C23.911 29.4566 25.9387 31.4844 28.4312 31.4844C30.9235 31.4844 32.9512 29.4566 32.9512 26.9642V25.5469C32.9512 24.8997 32.4266 24.375 31.7794 24.375Z" fill="white"/>
</g>
<defs>
<clipPath id="clip0_718_487">
<rect width="40" height="40" fill="white"/>
</clipPath>
</defs>
</svg>
