<svg width="40" height="40" viewBox="0 0 40 40" fill="none" xmlns="http://www.w3.org/2000/svg">
<g clip-path="url(#clip0_718_478)">
<path d="M26.25 0C25.1225 0 24.01 0.14 22.94 0.415C22.27 0.5875 21.8675 1.2675 22.04 1.935C22.2125 2.605 22.8975 3.01 23.56 2.835C24.4275 2.6125 25.3325 2.5 26.25 2.5C32.4525 2.5 37.5 7.6925 37.5 14.075C37.5 21.395 29.05 31.3275 26.245 34.42C25.8662 34.0013 25.4945 33.5762 25.13 33.145C24.685 32.6175 23.895 32.55 23.3675 32.9975C22.84 33.4425 22.775 34.2325 23.22 34.76C24.4875 36.26 25.365 37.1375 25.365 37.1375C25.6013 37.3693 25.919 37.4994 26.25 37.5H26.2575C26.4227 37.4989 26.586 37.4649 26.7379 37.4001C26.8898 37.3353 27.0274 37.241 27.1425 37.1225C27.67 36.585 40 23.8225 40 14.075C40 6.3125 33.8325 0 26.25 0Z" fill="white"/>
<path d="M13.75 2.5C6.1675 2.5 0 8.8175 0 16.5825C0 26.3125 12.33 39.0825 12.855 39.62C13.09 39.8625 13.4125 40 13.75 40C14.0875 40 14.41 39.8625 14.645 39.6225C15.17 39.0825 27.5 26.3125 27.5 16.5825C27.5 8.8175 21.3325 2.5 13.75 2.5ZM13.75 36.915C10.94 33.8125 2.5 23.885 2.5 16.5825C2.5 10.1975 7.5475 5 13.75 5C19.9525 5 25 10.1975 25 16.5825C25 23.885 16.56 33.8125 13.75 36.915Z" fill="white"/>
<path d="M13.75 10C10.305 10 7.5 12.805 7.5 16.25C7.5 19.695 10.305 22.5 13.75 22.5C17.195 22.5 20 19.695 20 16.25C20 12.805 17.195 10 13.75 10ZM13.75 20C11.6825 20 10 18.3175 10 16.25C10 14.1825 11.6825 12.5 13.75 12.5C15.8175 12.5 17.5 14.1825 17.5 16.25C17.5 18.3175 15.8175 20 13.75 20Z" fill="white"/>
</g>
<defs>
<clipPath id="clip0_718_478">
<rect width="40" height="40" fill="white"/>
</clipPath>
</defs>
</svg>
