<svg width="20" height="20" viewBox="0 0 20 20" fill="none" xmlns="http://www.w3.org/2000/svg">
<path d="M2.70836 2.81247C2.04169 3.62497 3.10419 8.16664 4.52086 10.6041C5.54169 12.3333 7.66669 14.4583 9.39586 15.4791C11.8334 16.8958 16.375 17.9583 17.1875 17.2916C17.6042 16.9583 17.6459 13.5 17.25 13.1666C17.1042 13.0625 16.5209 12.9166 15.9375 12.8541C15.375 12.7916 14.5 12.6666 14 12.5833C13.125 12.4375 13.0625 12.4791 12.0625 13.4583L11.0417 14.4583L10.25 14.0625C9.25003 13.5208 6.47919 10.75 5.93753 9.74997L5.54169 8.95831L6.54169 7.93747C7.52086 6.93747 7.56253 6.87497 7.41669 5.99997C7.33336 5.49997 7.20836 4.62497 7.14586 4.06247C7.08336 3.47914 6.93753 2.89581 6.83336 2.74997C6.50003 2.35414 3.04169 2.39581 2.70836 2.81247Z" fill="#00A110"/>
</svg>
