<svg width="40" height="46" viewBox="0 0 40 46" fill="none" xmlns="http://www.w3.org/2000/svg">
<path d="M15.2444 1.80823C12.6667 3.37114 11.1111 6.22114 11.1111 9.25502V11.5994L7.46667 11.7373L3.82222 11.8752L2.17778 26.8147C1.28889 35.043 0.4 42.6277 0.266667 43.6849L0 45.6615H20H40L39.7333 43.6849C39.6 42.6277 38.7111 35.043 37.8222 26.8147L36.1778 11.8752L32.5333 11.7373L28.8889 11.5994V9.25502C28.8889 6.17517 27.3333 3.32517 24.7111 1.76226C22 0.153389 17.9111 0.153389 15.2444 1.80823ZM23.5556 3.96872C25.3778 5.20985 26.4889 7.09453 26.8889 9.66873L27.2 11.6453H20H12.8L13.1111 9.66873C13.7778 5.48566 16.4 2.91146 20 2.91146C21.4222 2.91146 22.5778 3.23323 23.5556 3.96872ZM11.1111 14.3115C11.1111 14.7712 10.8889 15.3687 10.6222 15.6445C10.3556 15.9204 10.2222 16.7018 10.3111 17.4373C10.4444 18.6325 10.6222 18.7704 12 18.7704C13.3778 18.7704 13.5556 18.6325 13.6889 17.4373C13.7778 16.7018 13.6444 15.9204 13.3778 15.6445C13.1111 15.3687 12.8889 14.7712 12.8889 14.3115C12.8889 13.53 13.4667 13.4841 20 13.4841C26.5333 13.4841 27.1111 13.53 27.1111 14.3115C27.1111 14.7712 26.8889 15.3687 26.6222 15.6445C26.3556 15.9204 26.2222 16.7018 26.3111 17.4373C26.4444 18.6325 26.6222 18.7704 28 18.7704C29.3778 18.7704 29.5556 18.6325 29.6889 17.4373C29.7778 16.7018 29.6444 15.9204 29.3778 15.6445C29.1111 15.3687 28.8889 14.7712 28.8889 14.3115C28.8889 13.622 29.2889 13.4841 31.5556 13.4841C33.6444 13.4841 34.2222 13.622 34.2222 14.1736C34.2222 14.5873 34.9333 21.2066 35.7778 28.9292C36.6222 36.6059 37.3333 43.1333 37.3333 43.3631C37.3333 43.6389 30.9778 43.8228 20 43.8228C9.02222 43.8228 2.66667 43.6389 2.66667 43.3631C2.66667 43.1333 3.37778 36.6059 4.22222 28.9292C5.06667 21.2066 5.77778 14.5873 5.77778 14.1736C5.77778 13.622 6.35556 13.4841 8.44444 13.4841C10.7111 13.4841 11.1111 13.622 11.1111 14.3115Z" fill="black"/>
</svg>
