<svg width="15" height="15" viewBox="0 0 15 15" fill="none" xmlns="http://www.w3.org/2000/svg">
<path d="M5.70905 0.96269C4.20905 1.47762 3.44785 1.94777 2.50755 3.02239C1.27621 4.43284 0.806062 5.88806 0.94039 7.92538C1.07472 9.91792 1.61203 11.0149 3.13442 12.403C5.73143 14.709 9.33591 14.6866 11.9329 12.3134C13.6568 10.7463 14.1941 9.42538 14.0598 7.05224C13.9479 5.01493 13.4329 3.85075 12.0449 2.52985C10.5001 1.05224 7.61203 0.335825 5.70905 0.96269ZM10.2762 2.12687C13.9702 3.98508 14.5747 9.22389 11.3956 11.9328C10.4105 12.806 8.73143 13.4328 7.50009 13.4328C6.29114 13.4328 4.61203 12.806 3.64935 11.9776C1.20905 9.89553 0.850838 6.22389 2.82099 3.64926C3.42546 2.84329 5.03741 1.83582 6.11203 1.54478C7.23143 1.25374 9.11203 1.52239 10.2762 2.12687Z" fill="#F2F2F2"/>
<path d="M4.74638 4.74628C4.5225 4.97016 4.724 5.28359 5.64191 6.2015L6.80609 7.38807L5.64191 8.57464C4.58967 9.64926 4.50011 9.80598 4.81355 10.0746C5.12698 10.3433 5.32847 10.209 6.33594 9.22389L7.50011 8.05971L8.66429 9.22389C9.67176 10.2314 9.87325 10.3433 10.1867 10.0746C10.5001 9.80598 10.4106 9.64926 9.35832 8.57464L8.19414 7.38807L9.35832 6.2015C10.4106 5.12687 10.5001 4.97016 10.1867 4.7015C9.87325 4.43284 9.67176 4.56717 8.66429 5.55225L7.47773 6.71643L6.38071 5.59702C5.17176 4.36568 5.14937 4.34329 4.74638 4.74628Z" fill="#F2F2F2"/>
</svg>
