<svg width="15" height="15" viewBox="0 0 15 15" fill="none" xmlns="http://www.w3.org/2000/svg">
<path d="M2.2049 0.240194C2.1449 0.300195 2.0999 1.08019 2.0999 1.9802V3.60019H3.7499C5.2949 3.60019 5.3999 3.58519 5.3999 3.30019C5.3999 3.04519 5.2799 3.01519 4.3199 2.97019L3.2249 2.92519L3.9599 2.4452C5.2949 1.56019 6.1949 1.3202 7.7999 1.38019C9.4199 1.45519 10.3949 1.8152 11.5199 2.79019C14.3849 5.2352 14.3849 9.76519 11.5199 12.2102C10.4099 13.1702 9.4049 13.5452 7.8449 13.6202C6.6749 13.6802 6.2999 13.6352 5.4899 13.3352C3.6899 12.7052 2.2349 11.2652 1.6499 9.54019C1.2449 8.3402 1.2449 6.6452 1.6499 5.46019C1.9349 4.63519 1.9499 4.56019 1.6949 4.3952C1.5599 4.29019 1.3949 4.2002 1.3349 4.2002C1.2899 4.2002 1.0799 4.66519 0.899897 5.25019C0.614897 6.1202 0.569897 6.54019 0.629897 7.84519C0.674897 9.2852 0.719897 9.49519 1.2299 10.5302C1.9349 11.9402 3.1799 13.1702 4.6049 13.8452C5.5799 14.3102 5.6999 14.3252 7.5149 14.3252C9.3749 14.3252 9.4049 14.3252 10.5149 13.7702C11.9399 13.0652 13.1699 11.8202 13.8449 10.3952C14.3099 9.4202 14.3249 9.3002 14.3249 7.4852C14.3249 5.62519 14.3249 5.59519 13.7699 4.4852C13.0649 3.06019 11.8199 1.83019 10.3949 1.1552C9.4199 0.690195 9.2999 0.675195 7.4999 0.675195C5.7599 0.675195 5.5649 0.705194 4.7249 1.09519C4.2299 1.3202 3.5699 1.71019 3.2699 1.96519L2.7149 2.4002L2.6699 1.3202C2.6249 0.345195 2.4749 -0.0148048 2.2049 0.240194Z" fill="#00A110"/>
<path d="M7.19997 4.78516C7.19997 6.03016 7.13997 6.91516 7.04997 6.97516C6.97497 7.02016 6.89997 7.18516 6.89997 7.32016C6.89997 7.47016 6.43497 8.05516 5.84997 8.62516C4.85997 9.60016 4.81497 9.67516 5.05497 9.93016C5.29497 10.2002 5.35497 10.1702 6.35997 9.16516C6.94497 8.59516 7.55997 8.10016 7.72497 8.07016C8.06997 8.01016 8.23497 7.27516 7.96497 7.00516C7.85997 6.90016 7.79997 6.04516 7.79997 4.77016C7.79997 2.80516 7.78497 2.70016 7.49997 2.70016C7.21497 2.70016 7.19997 2.80516 7.19997 4.78516Z" fill="#00A110"/>
</svg>
