<svg width="35" height="35" viewBox="0 0 35 35" fill="none" xmlns="http://www.w3.org/2000/svg">
<path d="M4.73975 4.92188C3.57309 6.34375 5.43246 14.2917 7.91163 18.5573C9.69809 21.5833 13.4168 25.3021 16.4429 27.0885C20.7085 29.5677 28.6564 31.4271 30.0783 30.2604C30.8075 29.6771 30.8804 23.625 30.1877 23.0417C29.9325 22.8594 28.9116 22.6042 27.8908 22.4948C26.9064 22.3854 25.3752 22.1667 24.5002 22.0208C22.9689 21.7656 22.8595 21.8385 21.1095 23.5521L19.3231 25.3021L17.9377 24.6094C16.1877 23.6615 11.3387 18.8125 10.3908 17.0625L9.69809 15.6771L11.4481 13.8906C13.1616 12.1406 13.2345 12.0312 12.9793 10.5C12.8335 9.625 12.6148 8.09375 12.5054 7.10938C12.396 6.08854 12.1408 5.06771 11.9585 4.8125C11.3752 4.11979 5.32309 4.19271 4.73975 4.92188Z" fill="#00A110"/>
</svg>
