<svg width="35" height="35" viewBox="0 0 35 35" fill="none" xmlns="http://www.w3.org/2000/svg">
<path d="M13.0198 1.435C10.5348 2.415 7.9798 4.97 7.0348 7.525C6.5098 8.925 6.2998 10.29 6.2998 12.355C6.2998 17.5 9.1698 24.15 14.3498 31.08C15.7848 32.935 16.9398 34.16 17.3948 34.23C19.2498 34.51 26.7398 22.26 28.1748 16.625C30.4498 7.665 25.6898 0.665001 17.3948 0.735001C15.7498 0.735001 14.2448 0.98 13.0198 1.435ZM21.5248 3.29C23.6598 4.27 25.5848 6.335 26.4248 8.505C27.1598 10.465 27.0198 14.595 26.1098 17.325C24.7098 21.42 18.8998 31.325 17.6398 31.745C16.7298 32.06 11.1648 23.275 9.4148 18.795C7.9798 15.085 7.6298 10.955 8.5748 8.54C9.9748 4.83 13.4748 2.45 17.4998 2.45C19.1448 2.45 20.2648 2.695 21.5248 3.29Z" fill="#00A110"/>
<path d="M15.1897 8.05C14.8047 8.19 14.0347 8.82 13.5447 9.45C12.2847 10.92 12.1797 14.105 13.3347 15.54C15.5047 18.27 19.9847 18.165 21.6997 15.295C23.1347 12.985 22.2247 9.31 19.9497 8.155C18.9697 7.665 16.3097 7.595 15.1897 8.05ZM19.7747 10.325C20.4397 10.955 20.6497 11.55 20.6497 12.6C20.6497 13.65 20.4397 14.245 19.7747 14.875C19.1447 15.54 18.5497 15.75 17.4997 15.75C16.4497 15.75 15.8547 15.54 15.2247 14.875C14.5597 14.245 14.3497 13.65 14.3497 12.6C14.3497 10.64 15.5397 9.45 17.4997 9.45C18.5497 9.45 19.1447 9.66 19.7747 10.325Z" fill="#00A110"/>
</svg>
