<svg width="15" height="15" viewBox="0 0 15 15" fill="none" xmlns="http://www.w3.org/2000/svg">
<path d="M6.56995 0.840391C6.11995 1.08039 5.69995 1.75539 5.69995 2.25039C5.69995 3.04539 6.55495 3.90039 7.34995 3.90039C8.14495 3.90039 8.99995 3.04539 8.99995 2.25039C8.99995 1.74039 8.57995 1.08039 8.09995 0.825391C7.55995 0.540391 7.09495 0.540391 6.56995 0.840391ZM8.05495 1.53039C8.48995 1.93539 8.48995 2.50539 8.06995 2.95539C7.66495 3.39039 7.09495 3.39039 6.64495 2.97039C6.20995 2.56539 6.20995 1.99539 6.62995 1.54539C7.03495 1.11039 7.60495 1.11039 8.05495 1.53039Z" fill="#00A110"/>
<path d="M4.25996 4.9952C4.21496 5.1152 4.19996 5.64019 4.22996 6.1652L4.27496 7.1252L5.14496 7.1702L5.99996 7.2152V9.60019V11.9852L5.14496 12.0302L4.27496 12.0752V13.2002V14.3252H7.49996H10.725V13.2002V12.0752L9.86996 12.0302L8.99996 11.9852L8.96996 8.43019L8.92496 4.87519L6.62996 4.83019C4.79996 4.80019 4.33496 4.83019 4.25996 4.9952ZM8.42996 8.95519L8.47496 12.5252L9.34496 12.5702L10.2 12.6152V13.2002V13.8002H7.49996H4.79996V13.2002V12.6152L5.66996 12.5702L6.52496 12.5252V9.60019V6.6752L5.66996 6.6302L4.79996 6.5852V6.00019V5.4002H6.59996H8.39996L8.42996 8.95519Z" fill="#00A110"/>
</svg>
