<svg width="35" height="35" viewBox="0 0 35 35" fill="none" xmlns="http://www.w3.org/2000/svg">
<path d="M0 17.5V30.1H17.5H35V17.5V4.9H17.5H0V17.5ZM33.6 17.5V28.7H17.5H1.4V17.5V6.3H17.5H33.6V17.5Z" fill="#00A110"/>
<path d="M2.79997 10.57C2.79997 11.27 3.88497 12.005 9.86997 15.4C13.72 17.57 17.15 19.39 17.465 19.39C17.78 19.425 21.21 17.64 25.13 15.435C31.255 11.935 32.2 11.305 32.2 10.57V9.73L30.73 10.605C24.22 14.35 17.85 17.85 17.5 17.85C17.29 17.85 14.245 16.205 10.745 14.245C1.95997 9.24 2.79997 9.625 2.79997 10.57Z" fill="#00A110"/>
</svg>
