<svg width="25" height="25" viewBox="0 0 25 25" fill="none" xmlns="http://www.w3.org/2000/svg">
<path d="M9.3 1.025C7.525 1.725 5.7 3.55 5.025 5.375C4.65 6.375 4.5 7.35 4.5 8.825C4.5 12.5 6.55 17.25 10.25 22.2C11.275 23.525 12.1 24.4 12.425 24.45C13.75 24.65 19.1 15.9 20.125 11.875C21.75 5.475 18.35 0.474998 12.425 0.524998C11.25 0.524998 10.175 0.699999 9.3 1.025ZM15.375 2.35C16.9 3.05 18.275 4.525 18.875 6.075C19.4 7.475 19.3 10.425 18.65 12.375C17.65 15.3 13.5 22.375 12.6 22.675C11.95 22.9 7.975 16.625 6.725 13.425C5.7 10.775 5.45 7.825 6.125 6.1C7.125 3.45 9.625 1.75 12.5 1.75C13.675 1.75 14.475 1.925 15.375 2.35Z" fill="black"/>
<path d="M10.8498 5.75C10.5748 5.85 10.0248 6.3 9.67482 6.75C8.77482 7.8 8.69982 10.075 9.52482 11.1C11.0748 13.05 14.2748 12.975 15.4998 10.925C16.5248 9.275 15.8748 6.65 14.2498 5.825C13.5498 5.475 11.6498 5.425 10.8498 5.75ZM14.1248 7.375C14.5998 7.825 14.7498 8.25 14.7498 9C14.7498 9.75 14.5998 10.175 14.1248 10.625C13.6748 11.1 13.2498 11.25 12.4998 11.25C11.7498 11.25 11.3248 11.1 10.8748 10.625C10.3998 10.175 10.2498 9.75 10.2498 9C10.2498 7.6 11.0998 6.75 12.4998 6.75C13.2498 6.75 13.6748 6.9 14.1248 7.375Z" fill="black"/>
</svg>
