<svg width="25" height="25" viewBox="0 0 25 25" fill="none" xmlns="http://www.w3.org/2000/svg">
<g clip-path="url(#clip0_292_402)">
<path d="M0.300195 6.8C-0.124805 7.225 -0.124805 21.775 0.300195 22.2C0.475195 22.375 1.2502 22.5 2.0502 22.5C3.2002 22.5 3.5002 22.575 3.5002 22.9C3.5002 23.125 3.8752 23.675 4.35019 24.15C5.10019 24.9 5.35019 25 6.5002 25C7.65019 25 7.90019 24.9 8.6502 24.15C9.12519 23.675 9.50019 23.125 9.50019 22.9C9.50019 22.55 9.95019 22.5 13.0002 22.5C16.0502 22.5 16.5002 22.55 16.5002 22.9C16.5002 23.125 16.8752 23.675 17.3502 24.15C18.1002 24.9 18.3502 25 19.5002 25C20.6502 25 20.9002 24.9 21.6502 24.15C22.1252 23.675 22.5002 23.125 22.5002 22.9C22.5002 22.6 22.7502 22.5 23.4502 22.5C23.9752 22.5 24.5252 22.375 24.7002 22.2C24.9002 22 25.0002 20.8 25.0002 18.475V15.05L23.9502 13.5C23.3752 12.625 22.5002 11.5 22.0002 10.95L21.0752 10H18.3002H15.5002V8.55C15.5002 7.75 15.3752 6.975 15.2002 6.8C14.7752 6.375 0.725195 6.375 0.300195 6.8ZM14.2002 7.8C14.6252 8.225 14.6252 20.775 14.2002 21.2C14.0002 21.4 13.0752 21.5 11.7002 21.5C9.85019 21.5 9.50019 21.425 9.50019 21.1C9.50019 20.875 9.12519 20.325 8.6502 19.85C7.90019 19.1 7.65019 19 6.5002 19C5.35019 19 5.10019 19.1 4.35019 19.85C3.8752 20.325 3.5002 20.875 3.5002 21.1C3.5002 21.6 1.7752 21.675 1.3002 21.2C0.875195 20.775 0.875195 8.225 1.3002 7.8C1.7252 7.375 13.7752 7.375 14.2002 7.8ZM20.5252 11.5L21.1252 11.975L19.6252 12C18.7752 12 17.9752 12.125 17.8002 12.3C17.4002 12.7 17.4002 16.3 17.8002 16.7C18.0002 16.9 19.1002 17 21.0502 17H24.0002V18.95C24.0002 20.125 23.8752 21.025 23.7002 21.2C23.2752 21.625 22.5002 21.575 22.5002 21.1C22.5002 20.875 22.1252 20.325 21.6502 19.85C20.9002 19.1 20.6502 19 19.5002 19C18.3502 19 18.1002 19.1 17.3502 19.85C16.8752 20.325 16.5002 20.875 16.5002 21.1C16.5002 21.575 16.2252 21.625 15.8002 21.2C15.3752 20.775 15.3752 11.725 15.8002 11.3C15.9752 11.125 16.8502 11 18.0252 11C19.5752 11 20.0502 11.1 20.5252 11.5ZM22.9252 14.35C23.3752 15 23.7502 15.65 23.7502 15.775C23.7502 16.125 19.1502 16.05 18.8002 15.7C18.4002 15.3 18.4252 13.675 18.8002 13.3C19.0002 13.1 19.6752 13 20.6002 13.05C22.0502 13.125 22.1002 13.15 22.9252 14.35ZM7.7502 20.75C8.82519 21.825 8.0252 23.75 6.5002 23.75C5.5502 23.75 4.7502 22.95 4.7502 22C4.7502 21.05 5.5502 20.25 6.5002 20.25C6.92519 20.25 7.47519 20.475 7.7502 20.75ZM20.7502 20.75C21.8252 21.825 21.0252 23.75 19.5002 23.75C18.5502 23.75 17.7502 22.95 17.7502 22C17.7502 21.05 18.5502 20.25 19.5002 20.25C19.9252 20.25 20.4752 20.475 20.7502 20.75Z" fill="black"/>
</g>
<defs>
<clipPath id="clip0_292_402">
<rect width="25" height="25" fill="white"/>
</clipPath>
</defs>
</svg>
