<svg width="30" height="30" viewBox="0 0 30 30" fill="none" xmlns="http://www.w3.org/2000/svg">
<rect width="30" height="30" fill="white"/>
<path d="M0.322224 8.14453C0.732381 6.49805 1.44722 5.23242 2.63668 4.03711C3.9609 2.70117 5.52535 1.93359 7.39449 1.69922L0.322224 8.14453ZM0.322224 8.14453C-0.404338 10.998 0.123006 13.8105 1.8691 16.4531C2.98824 18.1465 4.43551 19.6992 7.0898 22.0664L0.322224 8.14453ZM7.51962 2.69136L7.51891 2.69145C5.87081 2.89811 4.5129 3.56476 3.34689 4.7411L3.34552 4.74248C2.28369 5.80954 1.6591 6.91488 1.29258 8.38626L1.2913 8.39128C0.640325 10.9479 1.09867 13.4731 2.70336 15.9018C3.75186 17.4882 5.12418 18.9735 7.75539 21.3201L7.75561 21.3203C8.59023 22.0651 10.2922 23.5338 11.822 24.8388C12.5858 25.4904 13.3035 26.0983 13.8449 26.5518C14.116 26.7788 14.3405 26.9651 14.5037 27.098C14.5857 27.1648 14.6486 27.2153 14.6926 27.2497C14.701 27.2562 14.708 27.2617 14.7138 27.2661C14.7215 27.2666 14.7307 27.2671 14.7415 27.2676C14.7986 27.2703 14.8777 27.2715 15 27.2715C15.1222 27.2715 15.2014 27.2703 15.2584 27.2676C15.2692 27.2671 15.2784 27.2666 15.2862 27.2661C15.292 27.2616 15.2991 27.2561 15.3076 27.2495C15.3517 27.215 15.4148 27.1645 15.497 27.0976C15.6604 26.9644 15.8854 26.778 16.1569 26.5507C16.6992 26.0969 17.4179 25.4884 18.1824 24.8365C19.714 23.5305 21.4152 22.0624 22.2432 21.3213L22.2443 21.3203C24.886 18.9631 26.2478 17.483 27.297 15.901C28.9013 13.4726 29.3595 10.9477 28.7086 8.39128L28.7073 8.38625C28.3408 6.91488 27.7162 5.80954 26.6544 4.74248L27.3632 4.03711L26.6544 4.74247C25.6096 3.69247 24.5189 3.10056 23.0484 2.7888C22.7226 2.72006 22.2041 2.67392 21.6593 2.66841C21.1058 2.6628 20.632 2.70032 20.3823 2.75669L20.3823 2.75673L20.3739 2.75855C18.5993 3.14323 17.2413 4.01388 15.9503 5.65688L15.9504 5.65691L15.9449 5.66376L15.7808 5.86884L14.9857 6.86279L14.2082 5.85494L14.0538 5.65487C12.7763 4.04218 11.4367 3.17308 9.73839 2.78549L9.7346 2.78461C9.53698 2.73869 9.1326 2.69319 8.66056 2.67264C8.19323 2.65229 7.762 2.66079 7.51962 2.69136Z" stroke="black" stroke-width="2"/>
</svg>
