<svg width="40" height="37" viewBox="0 0 40 37" fill="none" xmlns="http://www.w3.org/2000/svg">
<path d="M8.14575 0.718197C5.12191 1.67004 2.44867 4.02698 0.871019 7.10913C-0.443691 9.60205 -0.224573 15.6304 1.22161 18.8938C3.45661 23.925 7.1378 27.687 15.9025 33.806L19.9781 36.6615L24.4043 33.5341C33.8264 26.9618 37.6391 22.7465 39.3044 16.9901C41.7585 8.69553 37.5076 1.2621 29.8823 0.446243C26.9461 0.12896 24.4043 0.899498 21.9502 2.80318L19.9781 4.38958L18.0061 2.80318C15.0699 0.536892 11.3449 -0.278973 8.14575 0.718197ZM15.4205 3.16579C16.8667 3.93633 18.269 5.25077 19.277 6.74652L19.9781 7.74369L20.6793 6.74652C22.7829 3.61905 25.0617 2.39525 28.7867 2.34992C32.687 2.34992 35.4041 3.98165 37.2008 7.56239C38.3403 9.78335 38.4279 10.3726 38.2526 13.0921C37.9897 17.4887 36.3682 20.6162 32.2926 24.7862C30.452 26.6445 26.9023 29.5907 24.4482 31.3131L20.022 34.4406L15.5081 31.3131C9.67958 27.2338 4.7275 22.2479 3.0622 18.6672C2.01043 16.4009 1.79132 15.3584 1.79132 12.5029C1.79132 9.46607 1.96661 8.83151 3.10603 6.8825C4.99044 3.7097 8.27722 1.94199 11.6955 2.25927C13.054 2.39525 14.7193 2.80318 15.4205 3.16579Z" fill="black"/>
</svg>
