<svg width="30" height="30" viewBox="0 0 30 30" fill="none" xmlns="http://www.w3.org/2000/svg">
<rect width="30" height="30" fill="white"/>
<path d="M7.39449 1.69922C5.52535 1.93359 3.9609 2.70117 2.63668 4.03711C1.44722 5.23242 0.732381 6.49805 0.322224 8.14453C-0.404338 10.998 0.123006 13.8105 1.8691 16.4531C2.98824 18.1465 4.43551 19.6992 7.0898 22.0664C8.7773 23.5723 13.9277 27.9668 14.1796 28.1133C14.414 28.2539 14.5019 28.2715 15 28.2715C15.498 28.2715 15.5859 28.2539 15.8203 28.1133C16.0722 27.9668 21.2343 23.5664 22.9101 22.0664C25.5761 19.6875 27.0117 18.1406 28.1308 16.4531C29.8769 13.8105 30.4043 10.998 29.6777 8.14453C29.2675 6.49805 28.5527 5.23242 27.3632 4.03711C26.1796 2.84766 24.914 2.16211 23.2558 1.81055C22.4238 1.63477 20.8886 1.61719 20.1621 1.78125C18.1347 2.2207 16.582 3.23438 15.164 5.03906L15 5.24414L14.8418 5.03906C13.4414 3.26953 11.9121 2.25586 9.96089 1.81055C9.38082 1.67578 8.04488 1.61719 7.39449 1.69922Z" fill="#00A110"/>
</svg>
