<svg width="25" height="25" viewBox="0 0 25 25" fill="none" xmlns="http://www.w3.org/2000/svg">
<path d="M2.275 4.85C1.1 5.5 1.025 5.975 1 12.45C1 19.05 1.1 19.625 2.375 20.2C3.3 20.625 21.7 20.625 22.625 20.2C23.9 19.625 24 19.05 24 12.525C24 6.05 23.9 5.475 22.725 4.85C21.75 4.35 3.175 4.35 2.275 4.85ZM22.5 6C22.975 6.475 23 6.825 23 12.5C23 18.175 22.975 18.525 22.5 19C22.025 19.475 21.675 19.5 12.5 19.5C3.325 19.5 2.975 19.475 2.5 19C2.025 18.525 2 18.175 2 12.5C2 6.825 2.025 6.475 2.5 6C2.975 5.525 3.325 5.5 12.5 5.5C21.675 5.5 22.025 5.525 22.5 6Z" fill="black"/>
<path d="M4.3 8.3C3.9 8.7 3.9 10.8 4.3 11.2C4.7 11.6 7.3 11.6 7.7 11.2C8.1 10.8 8.1 8.7 7.7 8.3C7.525 8.125 6.775 8 6 8C5.225 8 4.475 8.125 4.3 8.3ZM7 9.75C7 10.45 6.95 10.5 6 10.5C5.05 10.5 5 10.45 5 9.75C5 9.05 5.05 9 6 9C6.95 9 7 9.05 7 9.75Z" fill="black"/>
<path d="M13.5 9.50001C13.5 10 13.6 10 17.2 9.95001C20.275 9.87501 20.875 9.82501 20.875 9.50001C20.875 9.17501 20.275 9.12501 17.2 9.05001C13.6 9.00001 13.5 9.00001 13.5 9.50001Z" fill="black"/>
<path d="M4 14.5C4 14.975 4.125 15.025 5.7 14.95C7 14.9 7.375 14.8 7.375 14.5C7.375 14.2 7 14.1 5.7 14.05C4.125 13.975 4 14.025 4 14.5Z" fill="black"/>
<path d="M8.5 14.5C8.5 14.975 8.625 15.025 10.2 14.95C11.5 14.9 11.875 14.8 11.875 14.5C11.875 14.2 11.5 14.1 10.2 14.05C8.625 13.975 8.5 14.025 8.5 14.5Z" fill="black"/>
<path d="M13 14.5C13 14.975 13.125 15.025 14.7 14.95C16 14.9 16.375 14.8 16.375 14.5C16.375 14.2 16 14.1 14.7 14.05C13.125 13.975 13 14.025 13 14.5Z" fill="black"/>
<path d="M17.5 14.5C17.5 14.975 17.625 15.025 19.2 14.95C20.5 14.9 20.875 14.8 20.875 14.5C20.875 14.2 20.5 14.1 19.2 14.05C17.625 13.975 17.5 14.025 17.5 14.5Z" fill="black"/>
<path d="M4 17C4 17.5 4.1 17.5 7.7 17.45C10.775 17.375 11.375 17.325 11.375 17C11.375 16.675 10.775 16.625 7.7 16.55C4.1 16.5 4 16.5 4 17Z" fill="black"/>
</svg>
