<svg width="25" height="25" viewBox="0 0 25 25" fill="none" xmlns="http://www.w3.org/2000/svg">
<path d="M1.1249 3.325C1.0499 3.5 1.0249 6.4 1.0499 9.75L1.1249 15.875H12.4999H23.8749V9.5V3.125L12.5499 3.05C3.5499 3 1.1999 3.05 1.1249 3.325ZM4.4999 9.5V15H3.2499H1.9999V9.5V4H3.2499H4.4999V9.5ZM19.4999 9.5V15H12.4999H5.4999V9.5V4H12.4999H19.4999V9.5ZM22.9999 9.5V15H21.7499H20.4999V9.5V4H21.7499H22.9999V9.5Z" fill="black"/>
<path d="M11.35 5.725C10.725 6 9.75 7.175 9.75 7.65C9.75 7.85 9.525 8 9.25 8C8.45 8 7.5 9.1 7.5 10C7.5 10.95 8.525 12.075 9.3 11.95C10.075 11.85 10.15 11.3 9.4 11C8.125 10.525 8.275 9.25 9.625 9C10.175 8.9 10.4 8.675 10.55 8.075C11.1 6 13.9 6 14.45 8.075C14.6 8.675 14.825 8.9 15.375 9C16.725 9.25 16.875 10.525 15.6 11C14.85 11.3 14.925 11.85 15.7 11.95C16.475 12.075 17.5 10.95 17.5 10C17.5 9.1 16.55 8 15.75 8C15.475 8 15.25 7.825 15.25 7.625C15.25 7.425 14.95 6.9 14.575 6.5C13.825 5.65 12.35 5.3 11.35 5.725Z" fill="black"/>
<path d="M1.12511 16.75C0.775107 17.3 1.37511 17.5 3.32511 17.5C8.52511 17.5 16.0751 18.55 19.8251 19.775C21.1251 20.2 22.1751 20.425 22.3001 20.3C22.4251 20.175 22.5001 19.3 22.4501 18.35C22.4001 17.025 22.3001 16.625 22.0001 16.625C21.7251 16.625 21.6001 16.975 21.5501 17.925L21.4751 19.225L20.5501 18.9C19.7251 18.625 19.6001 18.45 19.5001 17.6C19.3501 16.35 18.6501 16.25 18.5501 17.45C18.4751 18.2 18.4001 18.275 17.9251 18.15C14.1251 17.075 1.57511 16.025 1.12511 16.75Z" fill="black"/>
<path d="M1 18.45C1 18.875 1.3 18.95 3.95 19.075C10.3 19.425 15.525 20.85 19.325 23.3C20.8 24.25 21.05 24.075 20.95 22.1C20.9 21 20.775 20.625 20.5 20.625C20.25 20.625 20.1 20.925 20.05 21.55L19.975 22.45L19.25 22.05C18.7 21.725 18.5 21.425 18.45 20.75C18.375 19.75 17.675 19.525 17.55 20.45C17.475 20.9 17.35 21 17.05 20.85C13.125 19.2 7.075 18 2.5 18C1.2 18 1 18.075 1 18.45Z" fill="black"/>
</svg>
