<svg width="282" height="112" viewBox="0 0 282 112" fill="none" xmlns="http://www.w3.org/2000/svg">
<path d="M0 62.1058C4.83382 73.4588 16.0855 81.4229 29.1984 81.4229C24.3646 70.065 13.1129 62.1058 0 62.1058Z" fill="#12B36A"/>
<path d="M29.2009 81.4225C38.8337 81.4225 47.1278 75.6928 50.8702 67.4563C41.2396 67.4563 32.9457 73.186 29.2009 81.4225Z" fill="#12B36A"/>
<path fill-rule="evenodd" clip-rule="evenodd" d="M29.2009 65.5463C42.341 65.5463 52.9937 54.887 52.9937 41.733C52.9937 28.5842 42.341 17.92 29.2009 17.92C16.0583 17.92 5.40808 28.5842 5.40808 41.733C5.40808 54.887 16.0583 65.5463 29.2009 65.5463ZM29.2009 53.6413C35.7697 53.6413 41.096 48.3104 41.096 41.7335C41.096 35.1566 35.7697 29.8281 29.2009 29.8281C22.6294 29.8281 17.3032 35.1566 17.3032 41.7335C17.3032 48.3104 22.6294 53.6413 29.2009 53.6413Z" fill="#FEBE10"/>
<path d="M182.281 41.7337H192.234V80.343H182.281V65.3066H164.904V80.343H154.952V41.7337H164.904V55.9626H182.281V41.7337ZM196.921 51.3106H209.312V80.343H219.264V51.3106H231.504V41.7337H196.921V51.3106ZM279.762 71.9453V80.1522C278.065 81.002 275.946 81.4254 273.471 81.4254C268.301 81.4254 265.698 79.1737 264.655 75.5472L264.489 75.79C261.479 79.5727 257.314 81.4254 251.913 81.4254C246.741 81.4254 242.343 79.4959 238.641 75.557C235.016 71.6184 233.165 66.7532 233.165 61.0385C233.165 55.3285 235.016 50.54 238.641 46.6015C242.343 42.6651 246.741 40.6538 251.913 40.6538C257.074 40.6538 261.107 42.3531 264.082 45.8136V41.7362H274.035V69.0471C274.035 71.3806 275.096 72.5821 277.217 72.5821C278.209 72.5796 279.057 72.3688 279.762 71.9453ZM264.489 61.0358C264.489 57.8749 263.486 55.2492 261.403 53.2401C259.397 51.1569 256.851 50.1512 253.764 50.1512C250.678 50.1512 248.133 51.1545 246.126 53.2401C244.12 55.2492 243.118 57.8749 243.118 61.0358C243.118 64.2043 244.12 66.83 246.126 68.9159C248.133 70.9223 250.678 71.9255 253.764 71.9255C256.851 71.9255 259.397 70.9223 261.403 68.9159C263.486 66.83 264.489 64.2043 264.489 61.0358ZM72.9602 41.7337L72.6632 56.2402C72.5938 62.1135 72.3809 65.0143 71.532 68.3362C70.7547 71.5217 69.2698 72.421 66.9408 72.421C66.161 72.421 65.4556 72.3491 64.8889 72.1361V80.343C65.666 80.7666 66.9406 80.9772 68.6362 80.9772C75.6331 80.7666 79.0265 77.4619 80.7243 71.5192C81.9248 67.2735 82.1377 64.0184 82.3505 59.1385L82.5732 51.3079H94.9313V80.3406H104.883V41.7312H72.9602V41.7337ZM120.892 63.6445C121.964 70.2337 127.184 72.3912 132.481 72.3912C135.99 72.3912 139.668 71.0188 141.93 68.9654L148.068 75.146C144.403 79.2085 139.299 81.4254 132.325 81.4254C122.56 81.4254 110.782 75.6563 110.782 61.0385C110.782 46.4232 122.125 40.6538 131.758 40.6538C143.942 40.6538 148.984 46.3835 148.984 52.8067C148.987 63.3076 135.651 68.1579 120.892 63.6445ZM138.18 53.9437C138.18 50.9488 135.22 49.6111 131.904 49.6111C126.837 49.6111 122.447 51.7514 121.113 57.2607C131.436 60.2457 138.18 58.0187 138.18 53.9437Z" fill="black"/>
</svg>
