<svg width="121" height="121" viewBox="0 0 121 121" fill="none" xmlns="http://www.w3.org/2000/svg">
<path fill-rule="evenodd" clip-rule="evenodd" d="M60.5 0C27.1395 0 0 27.1395 0 60.5C0 93.8605 27.1395 121 60.5 121C93.8579 121 121 93.8605 121 60.5C121 27.1395 93.8579 0 60.5 0Z" fill="white"/>
<path fill-rule="evenodd" clip-rule="evenodd" d="M91.0311 17.1062C86.4136 28.9492 75.9015 31.4134 60.6744 31.4134C59.0401 31.4134 57.4214 31.3878 55.859 31.3646C54.3482 31.344 52.9196 31.321 51.5192 31.321C50.2755 31.321 49.0215 31.3364 47.7855 31.3904C49.9183 26.1535 53.3229 22.5947 58.1691 20.4363C64.9244 17.43 73.7071 17.3991 81.457 17.376C84.8333 17.3632 88.0658 17.3503 91.0311 17.1062Z" fill="#00923A"/>
<path fill-rule="evenodd" clip-rule="evenodd" d="M95.7782 20.9053C88.9484 35.7829 73.7264 37.2734 60.6783 37.2734C57.8133 37.2734 55.069 37.204 52.5276 37.1885L49.2412 50.0413C66.0717 36.3199 88.329 49.9231 85.9498 70.6287C84.3463 84.5735 74.4048 93.6929 63.8877 96.3137C52.43 99.1712 39.7365 94.8954 34.0448 83.2193C33.441 81.9859 32.3901 79.5141 31.9892 78.1934L44.0713 75.0893C44.2844 75.7857 44.6468 76.4589 45.0272 77.0731C53.116 90.1185 69.5071 83.5946 71.3572 70.0608C73.2408 56.2932 53.9229 48.9596 45.1195 65.0502L34.4046 60.484L34.2197 60.4017L39.387 39.6579C39.7056 38.1829 40.7797 34.0639 40.9646 33.3881C46.8053 11.9119 65.6992 11.5727 80.8543 11.5162C74.5873 8.90808 67.7163 7.46399 60.5035 7.46399C31.2106 7.46399 7.46802 31.2067 7.46802 60.4996C7.46802 89.7922 31.2106 113.535 60.5035 113.535C89.7964 113.535 113.539 89.7922 113.539 60.4996C113.539 44.7532 106.673 30.6182 95.7782 20.9053Z" fill="#E52322"/>
</svg>
