<svg width="26" height="26" viewBox="0 0 26 26" fill="none" xmlns="http://www.w3.org/2000/svg">
<path d="M10.92 1.56006C6.04293 1.56006 2.07996 5.52303 2.07996 10.4001C2.07996 15.2771 6.04293 19.2401 10.92 19.2401C12.8496 19.2401 14.6331 18.6185 16.0875 17.5663L22.9287 24.3913L24.3912 22.9288L17.6312 16.1526C18.9596 14.6047 19.76 12.5958 19.76 10.4001C19.76 5.52303 15.797 1.56006 10.92 1.56006ZM10.92 2.60006C15.2343 2.60006 18.72 6.08568 18.72 10.4001C18.72 14.7144 15.2343 18.2001 10.92 18.2001C6.60558 18.2001 3.11996 14.7144 3.11996 10.4001C3.11996 6.08568 6.60558 2.60006 10.92 2.60006Z" fill="black"/>
</svg>
